<?xml version="1.0" encoding="UTF-8"?>
<svg width="480.48" height="301.33" version="1.1" viewBox="0 0 127.13 79.726" xmlns="http://www.w3.org/2000/svg" xmlns:xlink="http://www.w3.org/1999/xlink">
<defs>
<radialGradient id="a" cx="17.217" cy="15.077" r="19.331" gradientTransform="matrix(.82234 -.0055945 .0049096 .72167 2.9373 7.6369)" gradientUnits="userSpaceOnUse">
<stop stop-color="#ff00c3" offset="0"/>
<stop stop-color="#ff00c3" stop-opacity="0" offset="1"/>
</radialGradient>
<linearGradient id="b" x1="197.26" x2="198.13" y1="311.37" y2="237.84" gradientUnits="userSpaceOnUse">
<stop stop-color="#8d0743" offset="0"/>
<stop stop-color="#40205b" stop-opacity="0" offset="1"/>
</linearGradient>
</defs>
<g transform="translate(80.037 37.798)">
<path d="m30.059 12.561a14.481 15.37 0 0 1-6.0526 20.234 14.481 15.37 0 0 1-19.323-5.4849 14.481 15.37 0 0 1 4.272-20.74 14.481 15.37 0 0 1 19.717 3.5738" fill="url(#a)"/>
<text transform="matrix(.87312 0 0 .87312 -80.736 -43.557)" fill="#ffffff" font-family="Aharoni" font-size="40px" stroke="#d7d7d7" stroke-width="1.1453" style="font-variant-caps:normal;font-variant-east-asian:normal;font-variant-ligatures:normal;font-variant-numeric:normal;line-height:1.25;shape-inside:url(#rect18933);white-space:pre" xml:space="preserve"><tspan x="0" y="34.394531">CaDee
</tspan><tspan x="0" y="84.394531">Studi   s</tspan></text>
</g>
<g transform="translate(80.037 37.798)">
<path d="m17.151 28.3c2.4853 0.0142 5.0562-0.34454 7.0696-0.6343l0.71324 0.97131c-0.80844 1.235-2.9965 2.1329-7.7705 2.2626" fill="#9e700c" stroke="#000" stroke-linecap="round" stroke-linejoin="round" stroke-width=".065362"/>
<path d="m17.164 28.3c-2.4853 0.0142-5.044-0.34454-7.0573-0.6343l-0.71324 0.97131c0.80844 1.235 2.9965 2.1329 7.7705 2.2626" fill="#9e700c" stroke="#000" stroke-linecap="round" stroke-linejoin="round" stroke-width=".065362"/>
<path d="m17.164 27.704c2.2572-0.0016 4.581 0.03975 6.4095 0.07321l0.64778-0.11209c-0.73423-0.14252-2.7215-0.24614-7.0573-0.26112" fill="#7b5106" stroke="#000" stroke-linecap="round" stroke-linejoin="round" stroke-width=".065362"/>
<path d="m17.164 27.704c-2.2572-0.0016-4.581 0.03975-6.4095 0.07321l-0.64778-0.1121c0.73423-0.14252 2.7215-0.24614 7.0573-0.26111" fill="#7b5106" stroke="#000" stroke-linecap="round" stroke-linejoin="round" stroke-width=".065362"/>
<path d="m16.618 28.264c-1.2882-0.01819-2.7901-0.13878-4.5703-0.36696-0.30355-0.03891-0.58959-0.07542-0.63563-0.08115-0.04604-0.0058-0.08372-0.01309-0.08372-0.01634 0-0.0032 0.31673-0.01109 0.70384-0.01738 3.1117-0.05062 4.2477-0.05732 6.6571-0.03929 1.4443 0.01081 3.2706 0.0348 4.0432 0.05314l0.27286 0.0065-0.12402 0.01714c-0.52902 0.07309-1.4401 0.18337-1.9658 0.23795-1.5965 0.16576-2.8644 0.22666-4.2975 0.20643z" fill="#492510" fill-opacity=".5"/>
<path d="m10.106 27.665c-0.69369 0.98974 4.9203 1.6262 7.0634 1.6224l-0.0061-0.98807c-2.4908 0.0392-5.0186-0.27842-7.0573-0.6343z" fill="#7b5106"/>
<path d="m24.221 27.665c0.69369 0.98974-4.882 1.6528-7.0634 1.6224l-0.0061-0.98807c2.4908 0.0392 5.0309-0.27842 7.0696-0.6343z" fill="#7b5106"/>
</g>
<g transform="translate(80.037 37.798)">
<path d="m25.744 14.898a9.5451 9.0664 0 0 1-3.9895 11.936 9.5451 9.0664 0 0 1-12.737-3.2354 9.5451 9.0664 0 0 1 2.8159-12.234 9.5451 9.0664 0 0 1 12.996 2.1081" fill="#a23da2"/>
<path transform="rotate(6.5264)" d="m25.601 11.635a7.5261 6.8956 0 0 1-3.1456 9.078 7.5261 6.8956 0 0 1-10.043-2.4608 7.5261 6.8956 0 0 1 2.2202-9.3048 7.5261 6.8956 0 0 1 10.247 1.6034" fill="#b74eb7"/>
<text transform="matrix(.26458 0 0 .26458 -80.037 -37.798)" fill="url(#b)" font-family="'Courier New'" font-size="40px" font-style="italic" font-weight="bold" stroke="#c90f5a" stroke-width="1.0016" style="font-variant-caps:normal;font-variant-east-asian:normal;font-variant-ligatures:normal;font-variant-numeric:normal;line-height:1.25;shape-inside:url(#rect36439);white-space:pre" xml:space="preserve"><tspan x="2.828125" y="300.23942">MAKING MAGIC REAL</tspan></text>
</g>
<g transform="translate(80.037 37.798)" fill="#f7dada" fill-opacity=".5">
<path d="m19.613 11.884a1.2208 1.1366 0 0 1-0.51023 1.4963 1.2208 1.1366 0 0 1-1.6289-0.4056 1.2208 1.1366 0 0 1 0.36013-1.5337 1.2208 1.1366 0 0 1 1.6621 0.26428"/>
<path d="m21.709 13.469a0.50514 0.54723 0 0 1-0.21113 0.72043 0.50514 0.54723 0 0 1-0.67404-0.19529 0.50514 0.54723 0 0 1 0.14902-0.73843 0.50514 0.54723 0 0 1 0.68777 0.12724"/>
<path d="m21.55 15.207a1.9574 1.789 0 0 1-0.81812 2.3553 1.9574 1.789 0 0 1-2.6119-0.63844 1.9574 1.789 0 0 1 0.57745-2.4141 1.9574 1.789 0 0 1 2.6651 0.41599"/>
</g>
</svg>
