<?xml version="1.0" encoding="UTF-8" standalone="no"?>
<!-- Created with Inkscape (http://www.inkscape.org/) -->

<svg
   width="210mm"
   height="148mm"
   viewBox="0 0 210 148"
   version="1.1"
   id="svg5"
   inkscape:version="1.1.2 (b8e25be833, 2022-02-05)"
   sodipodi:docname="Zeichnung.svg"
   xmlns:inkscape="http://www.inkscape.org/namespaces/inkscape"
   xmlns:sodipodi="http://sodipodi.sourceforge.net/DTD/sodipodi-0.dtd"
   xmlns:xlink="http://www.w3.org/1999/xlink"
   xmlns="http://www.w3.org/2000/svg"
   xmlns:svg="http://www.w3.org/2000/svg">
  <sodipodi:namedview
     id="namedview7"
     pagecolor="#505050"
     bordercolor="#eeeeee"
     borderopacity="1"
     inkscape:pageshadow="0"
     inkscape:pageopacity="0"
     inkscape:pagecheckerboard="0"
     inkscape:document-units="mm"
     showgrid="false"
     inkscape:snap-bbox="false"
     inkscape:snap-page="true"
     inkscape:zoom="0.9050967"
     inkscape:cx="590.54463"
     inkscape:cy="487.79318"
     inkscape:window-width="1920"
     inkscape:window-height="1018"
     inkscape:window-x="-8"
     inkscape:window-y="-8"
     inkscape:window-maximized="1"
     inkscape:current-layer="layer5"
     inkscape:object-paths="true"
     inkscape:object-nodes="true"
     inkscape:snap-global="true" />
  <defs
     id="defs2">
    <linearGradient
       inkscape:collect="always"
       id="linearGradient15094">
      <stop
         style="stop-color:#45db4b;stop-opacity:1"
         offset="0"
         id="stop15090" />
      <stop
         style="stop-color:#277328;stop-opacity:1"
         offset="1"
         id="stop15092" />
    </linearGradient>
    <linearGradient
       inkscape:collect="always"
       id="linearGradient13631">
      <stop
         style="stop-color:#2bbc31;stop-opacity:1"
         offset="0"
         id="stop13627" />
      <stop
         style="stop-color:#244825;stop-opacity:1"
         offset="1"
         id="stop13629" />
    </linearGradient>
    <linearGradient
       inkscape:collect="always"
       id="linearGradient11958">
      <stop
         style="stop-color:#008f06;stop-opacity:1"
         offset="0"
         id="stop11954" />
      <stop
         style="stop-color:#1b4c1d;stop-opacity:1"
         offset="1"
         id="stop11956" />
    </linearGradient>
    <linearGradient
       inkscape:collect="always"
       id="linearGradient10814">
      <stop
         style="stop-color:#008f06;stop-opacity:1;"
         offset="0"
         id="stop10810" />
      <stop
         style="stop-color:#008f06;stop-opacity:0;"
         offset="1"
         id="stop10812" />
    </linearGradient>
    <linearGradient
       inkscape:collect="always"
       xlink:href="#linearGradient10814"
       id="linearGradient10816"
       x1="68.111969"
       y1="194.86621"
       x2="79.70726"
       y2="174.98804"
       gradientUnits="userSpaceOnUse" />
    <radialGradient
       inkscape:collect="always"
       xlink:href="#linearGradient11958"
       id="radialGradient12390"
       cx="187.40701"
       cy="177.09894"
       fx="187.40701"
       fy="177.09894"
       r="32.728183"
       gradientTransform="matrix(-1.1702383,-0.3365837,0.26687673,-0.92788024,356.70217,372.13964)"
       gradientUnits="userSpaceOnUse" />
    <radialGradient
       inkscape:collect="always"
       xlink:href="#linearGradient15094"
       id="radialGradient12390-3"
       cx="200.2744"
       cy="175.04816"
       fx="200.2744"
       fy="175.04816"
       r="32.728184"
       gradientTransform="matrix(-0.5592434,-0.38905565,0.0515002,-0.64671803,355.24757,299.61602)"
       gradientUnits="userSpaceOnUse" />
    <radialGradient
       inkscape:collect="always"
       xlink:href="#linearGradient13631"
       id="radialGradient12390-3-4"
       cx="187.40701"
       cy="177.09894"
       fx="187.40701"
       fy="177.09894"
       r="32.728184"
       gradientTransform="matrix(-0.51957056,-0.51764887,0.11848979,-0.81865801,276.51863,372.28997)"
       gradientUnits="userSpaceOnUse" />
    <radialGradient
       inkscape:collect="always"
       xlink:href="#linearGradient13631"
       id="radialGradient12390-3-6"
       cx="187.40701"
       cy="177.09894"
       fx="187.40701"
       fy="177.09894"
       r="32.728184"
       gradientTransform="matrix(-0.63551578,-0.31581763,-0.01627962,-0.77390383,313.68994,330.10649)"
       gradientUnits="userSpaceOnUse" />
    <radialGradient
       inkscape:collect="always"
       xlink:href="#linearGradient13631"
       id="radialGradient12390-3-6-3"
       cx="187.40701"
       cy="177.09894"
       fx="187.40701"
       fy="177.09894"
       r="32.728184"
       gradientTransform="matrix(-0.54643704,-0.45279978,0.16115726,-0.75711327,274.06023,356.15625)"
       gradientUnits="userSpaceOnUse" />
    <radialGradient
       inkscape:collect="always"
       xlink:href="#linearGradient13631"
       id="radialGradient12390-3-6-3-8"
       cx="187.40701"
       cy="177.09894"
       fx="187.40701"
       fy="177.09894"
       r="32.728184"
       gradientTransform="matrix(-0.68057083,-0.201108,-0.14992336,-0.75941764,351.06147,321.67112)"
       gradientUnits="userSpaceOnUse" />
    <radialGradient
       inkscape:collect="always"
       xlink:href="#linearGradient13631"
       id="radialGradient12390-3-6-3-8-2"
       cx="187.40701"
       cy="177.09894"
       fx="187.40701"
       fy="177.09894"
       r="32.728184"
       gradientTransform="matrix(-0.96590181,0.19292558,-0.66184908,-0.82212473,490.84381,264.73746)"
       gradientUnits="userSpaceOnUse" />
    <radialGradient
       inkscape:collect="always"
       xlink:href="#linearGradient15094"
       id="radialGradient12390-3-1"
       cx="200.2744"
       cy="175.04816"
       fx="200.2744"
       fy="175.04816"
       r="32.728184"
       gradientTransform="matrix(-0.5592434,-0.38905565,0.0515002,-0.64671803,285.74713,325.96559)"
       gradientUnits="userSpaceOnUse" />
    <radialGradient
       inkscape:collect="always"
       xlink:href="#linearGradient15094"
       id="radialGradient12390-3-7"
       cx="200.2744"
       cy="175.04816"
       fx="200.2744"
       fy="175.04816"
       r="32.728184"
       gradientTransform="matrix(-0.34117345,-0.58967631,0.32118736,-0.56368002,212.89034,337.75036)"
       gradientUnits="userSpaceOnUse" />
  </defs>
  <g
     inkscape:groupmode="layer"
     id="layer4"
     inkscape:label="Ebene 3"
     style="display:inline">
    <path
       style="fill:#169d1b;fill-opacity:1;stroke:none;stroke-width:0.264583px;stroke-linecap:butt;stroke-linejoin:miter;stroke-opacity:1"
       d="m 214.72979,180.66455 c -1.15612,3.72151 -1.86965,6.38165 -2.51201,9.71781 -0.0663,0.34436 4.70819,5.65277 4.70939,6.00118 0.005,1.38128 -4.38906,-1.02172 -5.37089,-1.90244 -1.13494,-1.01807 -0.55468,6.72885 0.38817,11.05168 0.58379,0.22757 6.84017,2.75753 5.91844,4.10962 -0.27582,0.4046 -5.30605,-1.23302 -5.21173,-0.76094 1.16149,5.8136 0.17133,7.18727 3.20599,10.89356 0,0 7.4381,3.04223 7.61844,3.56268 0.48689,1.40515 -4.20155,2.36691 -4.072,1.94283 20.06906,15.00747 32.30676,9.47319 30.91505,-14.3267 0.50984,0.0718 -2.33634,2.64274 -3.21915,0.83829 -0.42874,-0.87635 1.59933,-4.18378 1.31608,-5.0493 -2.12625,-6.49699 -4.08129,-9.87971 -7.43415,-13.36591 0.36996,1.07141 -1.97537,8.51248 -2.78301,7.07925 -0.25725,-0.45652 0.38744,-9.02449 0.021,-9.38835 -2.70907,-2.68981 -5.0475,-4.54145 -8.4753,-6.0833 -0.77493,-0.34857 0.26258,7.21896 -0.53983,6.91427 -0.96085,-0.36486 -1.72093,-7.64295 -2.7158,-7.95349 -1.44328,-0.4505 -3.35854,-1.05271 -5.32977,-1.63194 -0.57463,-0.16884 1.33076,4.34148 0.75693,4.18086 -0.74207,-0.2077 -3.29793,-3.44839 -4.07727,-4.42242 -1.01275,-1.26574 -2.35281,-1.26443 -3.10856,-1.40728 z"
       id="path8170"
       sodipodi:nodetypes="cssscssssccsscsssssssscc" />
    <path
       style="display:inline;fill:#1c781f;fill-opacity:1;stroke:none;stroke-width:0.23603px;stroke-linecap:butt;stroke-linejoin:miter;stroke-opacity:1"
       d="m 199.78162,75.869665 c -2.12774,2.852756 -3.55747,4.926745 -5.14652,7.605729 -0.16404,0.2765 1.99109,6.328165 1.88029,6.629017 -0.43915,1.192748 -3.21855,-2.235693 -3.72937,-3.298286 -0.59047,-1.228272 -2.60637,5.632027 -3.23105,9.651162 0.39893,0.376146 4.64226,4.489183 3.46385,5.370823 -0.35263,0.26379 -3.8917,-2.700948 -3.9669,-2.264698 -0.92617,5.372308 -2.16679,6.251438 -0.90363,10.384408 0,0 5.03409,4.91922 5.01286,5.42376 -0.0573,1.36212 -4.15391,0.74464 -3.91322,0.41888 11.40192,19.1366 23.06476,18.14041 29.57379,-2.81496 0.38893,0.21922 -2.73533,1.55815 -2.86987,-0.27058 -0.0653,-0.88811 2.6341,-3.11468 2.68287,-3.94854 0.36585,-6.25942 -0.12881,-9.780158 -1.71969,-13.821515 -0.0447,1.038196 -4.32633,6.731825 -4.51919,5.246505 -0.0614,-0.473098 3.20754,-7.663465 3.02817,-8.090349 -1.32615,-3.155858 -2.62167,-5.474455 -4.89672,-7.862076 -0.5143,-0.539801 -2.10324,6.306912 -2.65385,5.796507 -0.65933,-0.611177 1.0609,-7.122655 0.35668,-7.697504 -1.02165,-0.833945 -2.376,-1.9444 -3.78293,-3.0523 -0.4101,-0.322972 -0.31724,4.154944 -0.72935,3.839318 -0.53298,-0.408121 -1.55864,-3.991799 -1.87592,-5.072357 -0.41231,-1.404169 -1.49548,-1.816607 -2.06025,-2.173066 z"
       id="path8170-85-6"
       sodipodi:nodetypes="cssscssssccsscsssssssscc" />
    <path
       style="display:inline;fill:#1b561e;fill-opacity:1;stroke:none;stroke-width:0.237438px;stroke-linecap:butt;stroke-linejoin:miter;stroke-opacity:1"
       d="m 193.0708,118.32645 c 0.37318,-1.6303 2.05475,-0.0555 3.14199,-1.68406 1.53156,-2.29403 -4.71084,-5.19046 -4.71084,-5.19046 l -1.94882,-1.52086 c -1.94881,-1.52089 0.51201,-7.22952 0.51201,-7.22952 1.93048,1.58719 4.008,2.60221 6.54876,1.81471 0,0 -1.43895,-5.965332 -3.53333,-7.246669 -2.09436,-1.281343 -0.40477,-6.08634 -0.40477,-6.08634 0.33376,-0.595035 6.27518,6.641845 6.40023,2.188412 0.12785,-4.554213 -2.20794,-8.748269 -2.20794,-8.748269 -0.31062,-2.813939 1.45212,-4.440453 2.47938,-6.090087 1.05517,-0.09132 1.02853,4.426028 2.92232,5.533838 1.12944,0.660678 1.50141,0.93348 2.11133,-0.217527 0.20799,-0.392555 -0.13774,-2.057072 0.28378,-2.694488 0.43174,0.298584 1.98737,1.061589 2.32697,1.883609 -0.91811,2.692733 -1.9381,5.4536 -1.48395,7.519408 1.01337,3.947016 4.07726,0.522258 4.07726,0.522258 0.59156,-0.452038 0.59684,-3.174372 1.20957,-3.361141 0.7958,-0.24255 2.17438,1.997434 2.44635,3.591948 0.49581,2.907463 -2.68898,9.237558 -2.68898,9.237558 0,0 -1.12189,5.3926 2.38525,2.60524 1.39344,-1.10745 2.3655,-1.47024 2.53025,-2.20688 0.22562,-1.008728 1.3224,-3.116119 1.49246,-3.039602 1.02429,0.460889 2.04651,8.587522 0.48546,9.647542 -1.31348,0.89192 -5.91934,5.87084 -3.35497,6.73323 2.56442,0.86229 2.55479,1.29193 2.55479,1.29193 0,0 -4.21727,12.02261 -10.36965,13.11017 -4.30935,0.30543 -12.63567,-5.82955 -13.20491,-10.36395 z"
       id="path11989-3-9-1"
       sodipodi:nodetypes="cscsccscsccssccccsscsscssccc" />
    <path
       style="display:inline;fill:#186c1b;fill-opacity:1;stroke:none;stroke-width:0.211982px;stroke-linecap:butt;stroke-linejoin:miter;stroke-opacity:1"
       d="m 196.41671,121.80823 c 0,0 -2.81123,-2.13901 -1.92101,-2.86919 0.46946,-0.38504 1.87839,0.0775 3.01968,-2.1665 1.37172,-2.69708 -1.72803,-4.48943 -1.92838,-4.46041 l -3.28323,-2.57295 c -1.72012,-1.348 -1.09834,-4.70985 -1.09834,-4.70985 1.69392,1.42021 4.54992,1.5658 6.81465,0.85157 0,0 0.83843,-3.09735 -1.34541,-6.586438 -0.77266,-1.234483 -2.44858,-2.008112 -3.14331,-3.165702 -0.80453,-1.34055 -0.54921,-2.986935 -0.14016,-3.120862 0.60365,0.270973 6.57759,7.524362 6.95082,2.857255 0.32124,-4.017302 0.56633,-6.18739 -0.49212,-7.655194 -3.45171,-3.560919 -0.0556,-11.573977 -0.19105,-6.982379 -0.12295,3.229802 3.70979,5.531432 3.89828,4.835483 0.20952,0.01726 0.65372,0.33049 1.3507,-1.107915 0.20138,-0.41561 0.0805,-2.867574 0.19513,-2.955864 0.2719,-0.209406 0.99737,0.641178 1.02728,0.648159 0.62888,0.146834 -0.57128,2.871292 -0.91325,4.013298 -1.5951,2.361932 -0.54378,4.724424 0.86805,6.660051 2.47184,6.03817 4.77067,-3.880787 5.27812,-4.109603 3.23389,2.41795 -3.22783,11.495601 -3.28811,13.335961 1.1416,6.05188 5.03409,1.88373 8.64806,-1.99997 0.84401,-0.822628 1.47783,3.26246 0.28726,5.79514 -0.37988,0.80796 -1.23989,0.52254 -1.95542,1.08439 -1.17669,0.8046 -5.37655,6.64355 -3.1111,7.41111 2.26545,0.76753 2.50311,1.63109 2.50311,1.63109 0,0 -3.10573,9.46031 -8.57959,10.45384 -3.57414,0.2049 -6.3948,-1.2641 -9.45072,-5.11453 z"
       id="path11989-7-8"
       sodipodi:nodetypes="csscsccsscscccssscccccscscccc" />
  </g>
  <g
     inkscape:groupmode="layer"
     id="layer3"
     inkscape:label="Ebene 2"
     style="display:inline">
    <path
       style="fill:#146317;fill-opacity:1;stroke:none;stroke-width:0.266161px;stroke-linecap:butt;stroke-linejoin:miter;stroke-opacity:1"
       d="m 224.56855,226.37279 c -0.25262,-1.79993 2.20438,-0.85322 2.7263,-2.92827 0.73521,-2.92303 -7.19712,-3.44293 -7.19712,-3.44293 l -2.72493,-0.78837 c -2.7249,-0.78838 -2.35883,-7.53859 -2.35883,-7.53859 2.73178,0.86281 5.39231,1.0877 7.82837,-0.69716 0,0 -3.96361,-5.49849 -6.74973,-5.98721 -2.7861,-0.48872 -2.89165,-6.02241 -2.89165,-6.02241 0.12188,-0.73355 9.47739,4.30987 7.81802,-0.26014 -1.69692,-4.67342 -5.9186,-8.02577 -5.9186,-8.02577 -1.47071,-2.73648 -0.21594,-5.07145 0.23246,-7.14467 1.1067,-0.50191 2.89846,4.09482 5.39726,4.48515 1.49029,0.23279 2.00332,0.3655 2.20042,-1.03962 0.0673,-0.47921 -0.97835,-2.0351 -0.77848,-2.84571 0.5882,0.13574 2.5816,0.30711 3.28093,1.01 0.0903,3.08994 0.0976,6.28855 1.42236,8.20983 2.68896,3.61435 4.62907,-1.05092 4.62907,-1.05092 0.4589,-0.68836 -0.63257,-3.45436 -0.0438,-3.88161 0.76466,-0.55486 3.16144,1.18471 4.09878,2.69818 1.70914,2.75962 0.80895,10.42154 0.80895,10.42154 0,0 0.95757,5.91012 3.63492,1.72008 1.06374,-1.66477 1.97099,-2.41006 1.85264,-3.22186 -0.16203,-1.11162 0.17721,-3.67658 0.39234,-3.66484 1.29579,0.0707 5.67886,7.92515 4.41436,9.60676 -1.06397,1.41491 -4.04876,8.25609 -0.92214,8.1372 3.12664,-0.11888 3.28934,0.32092 3.28934,0.32092 0,0 0.27516,13.84186 -5.95393,17.33193 -4.54701,1.98126 -16.04295,-1.01855 -18.48735,-5.40151 z"
       id="path11989-3"
       sodipodi:nodetypes="cscsccscsccssccccsscsscssccc" />
  </g>
  <g
     inkscape:label="Ebene 1"
     inkscape:groupmode="layer"
     id="layer1"
     style="display:inline">
    <g
       id="g839"
       transform="translate(-248.1957,36.23138)">
      <g
         id="layer2"
         inkscape:label="Ebene 2"
         style="display:inline">
        <path
           style="fill:#ffffff;fill-opacity:0;stroke:none;stroke-width:0.209058px;stroke-linecap:butt;stroke-linejoin:miter;stroke-opacity:1"
           d="m 131.11572,0 10.02113,40.883906 C 150.21871,77.935891 95.130868,101.58973 96.91163,100.43085 H 0 V 0 Z"
           id="path8983"
           sodipodi:nodetypes="cscccc" />
        <path
           style="fill:#b4115f;fill-opacity:1;stroke:none;stroke-width:0.264583px;stroke-linecap:butt;stroke-linejoin:miter;stroke-opacity:1"
           d="M 212.73296,-0.26458333 212.67246,102.20387 58.575216,101.77612 60.928371,-0.26458333 Z"
           id="behind"
           sodipodi:nodetypes="ccccc" />
      </g>
      <g
         inkscape:label="Ebene 1"
         id="layer1-8"
         style="display:inline">
        <path
           style="fill:#2a0a42;fill-opacity:1;stroke:none;stroke-width:0.20011px;stroke-linecap:butt;stroke-linejoin:miter;stroke-opacity:1"
           d="M 119.86778,-0.26458333 129.04945,40.619323 C 137.37054,77.671308 86.897324,101.32515 88.528908,100.16626 H -0.26458333 V -0.26458333 Z"
           id="left"
           sodipodi:nodetypes="cscccc" />
        <path
           style="fill:#2a0a42;fill-opacity:1;stroke:none;stroke-width:0.264583px;stroke-linecap:butt;stroke-linejoin:miter;stroke-opacity:1"
           d="m 136.85007,101.9934 c 20.93439,-14.214712 42.03748,-7.835533 48.35298,-18.584386 7.12485,-12.126335 11.0144,-4.528351 27.48459,-6.919951 l -0.0152,25.714807 z"
           id="bottom-right"
           sodipodi:nodetypes="csccc" />
      </g>
    </g>
    <path
       style="fill:#8fddf8;fill-opacity:1;stroke:none;stroke-width:0.264583px;stroke-linecap:butt;stroke-linejoin:miter;stroke-opacity:1"
       d="m 182.18535,-16.19196 -290.95108,88.415578 96.48914,56.169992 c 0,0 48.022766,-6.18522 97.942655,-28.890027 21.939095,-9.978446 35.691245,-33.475134 57.287415,-46.551881 14.44992,-8.749605 32.0549,-13.040492 44.33737,-22.67885 6.79633,-5.333257 8.56979,-9.896999 17.07042,-15.412044 2.1479,-1.393521 12.66702,-6.6226724 13.48193,-8.0212389 0.27458,-0.4712217 1.10285,-0.6954547 1.645,-1.3161251 z"
       id="path1388"
       sodipodi:nodetypes="cccssssscc" />
    <path
       style="fill:#66c8e9;fill-opacity:1;stroke:none;stroke-width:0.228469px;stroke-linecap:butt;stroke-linejoin:miter;stroke-opacity:1"
       d="m 166.07012,-25.57325 -290.95108,88.415578 71.94655,41.882812 c 0,0 48.57078,-5.86619 100.653757,-27.311777 22.889758,-9.425045 37.693813,-32.309362 61.160013,-44.297507 15.70113,-8.021215 35.57723,-10.990007 49.55513,-19.641381 7.73449,-4.787129 9.78669,-9.188611 19.12897,-14.2136954 2.36057,-1.26972 13.29667,-6.2561256 14.44199,-7.4623536 0.38591,-0.406418 1.20628,-0.635235 1.87932,-1.179716 z"
       id="path1388-6"
       sodipodi:nodetypes="cccssssscc" />
    <path
       style="fill:#49b2d5;fill-opacity:1;stroke:none;stroke-width:0.173904px;stroke-linecap:butt;stroke-linejoin:miter;stroke-opacity:1"
       d="m 159.05429,-31.712097 -290.95108,88.415578 41.684356,24.266044 c 0,0 49.246513,-5.472825 103.996691,-25.365732 24.06195,-8.74266 40.163083,-30.87191 65.935098,-41.51775 17.24396,-7.123091 39.920415,-8.461666 55.988895,-15.896047 8.89128,-4.113717 11.28715,-8.31513 21.66724,-12.736063 2.62279,-1.117065 14.07306,-5.804158 15.62579,-6.773222 0.52316,-0.326506 1.33382,-0.560989 2.16824,-1.011518 z"
       id="path1388-6-6"
       sodipodi:nodetypes="cccssssscc" />
    <path
       style="fill:#3499bb;fill-opacity:1;stroke:none;stroke-width:0.173904px;stroke-linecap:butt;stroke-linejoin:miter;stroke-opacity:1"
       d="M 132.41108,-43.797648 -158.54,44.61793 l 41.68435,24.266044 c 0,0 49.246518,-5.472825 103.996696,-25.365732 24.06195,-8.74266 40.163083,-30.87191 65.935098,-41.51775 17.24396,-7.123091 39.920421,-8.4616657 55.988896,-15.896047 8.89128,-4.113717 11.28715,-8.31513 21.66724,-12.736063 2.62279,-1.117065 14.07306,-5.804158 15.62579,-6.773222 0.52316,-0.326506 1.33382,-0.560989 2.16824,-1.011518 z"
       id="path1388-6-6-2"
       sodipodi:nodetypes="cccssssscc" />
    <path
       style="fill:#0e7512;fill-opacity:1;stroke:none;stroke-width:0.211666px;stroke-linecap:butt;stroke-linejoin:miter;stroke-opacity:1"
       d="m 121.18751,176.06115 c -0.92489,2.9772 -1.49572,5.10532 -2.0096,7.77424 -0.053,0.27549 3.76655,4.52222 3.76751,4.80095 0.004,1.10502 -4.15564,-0.47626 -4.29671,-1.52195 -0.423,-3.13536 -0.43388,5.33584 0.31053,8.84134 0.46703,0.18206 5.47214,2.20602 4.73475,3.2877 -0.22065,0.32368 -4.24484,-0.98642 -4.16938,-0.60876 0.92919,4.65088 0.13706,5.74982 2.56479,8.71485 0,0 5.95048,2.43379 6.09475,2.85015 0.38952,1.12412 -3.36124,1.89352 -3.2576,1.55426 16.05525,12.00598 25.84541,7.57855 24.73204,-11.46136 0.40788,0.0574 -1.86907,2.11419 -2.57532,0.67063 -0.34299,-0.70108 1.27947,-3.34702 1.05287,-4.03944 -1.701,-5.19759 -3.26503,-7.90377 -5.94732,-10.69273 0.29597,0.85713 -1.5803,6.80999 -2.22641,5.6634 -0.2058,-0.36521 0.30995,-7.21959 0.0168,-7.51068 -2.16726,-2.15184 -4.038,-3.63316 -6.78024,-4.86664 -0.61994,-0.27885 0.21006,5.77517 -0.43186,5.53142 -0.76868,-0.29189 -1.37675,-6.11436 -2.17264,-6.36279 -1.15463,-0.3604 -2.68684,-0.84217 -4.26382,-1.30555 -0.4597,-0.13508 1.06461,3.47318 0.60554,3.34468 -0.59365,-0.16616 -2.63834,-2.75871 -3.26181,-3.53793 -0.8102,-1.01259 -1.88225,-1.01155 -2.48685,-1.12583 z"
       id="path8170-8"
       sodipodi:nodetypes="cssscssssccsscsssssssscc" />
    <path
       style="fill:#167e1a;fill-opacity:1;stroke:none;stroke-width:0.237626px;stroke-linecap:butt;stroke-linejoin:miter;stroke-opacity:1"
       d="m 229.59784,228.61025 c 0,0 -3.90867,-1.08152 -3.23821,-2.1681 0.35356,-0.57299 2.06688,-0.64973 2.39931,-3.37064 0.39954,-3.27025 -3.68208,-3.88792 -3.88749,-3.78075 l -4.59505,-1.33906 c -2.40743,-0.70155 -3.08852,-4.3559 -3.08852,-4.3559 2.40812,0.78501 5.5619,-0.17476 7.72835,-1.77813 0,0 -0.33972,-3.46984 -4.11257,-6.16537 -1.33488,-0.9537 -3.46291,-1.08924 -4.68234,-1.99512 -1.41215,-1.04905 -1.79899,-2.81961 -1.40969,-3.11422 0.76339,0.041 10.16079,5.08859 8.68427,0.20542 -1.27095,-4.2033 -1.88,-6.50159 -3.6186,-7.58137 -5.17583,-2.27677 -4.72493,-11.72932 -3.02114,-7.01502 1.16846,3.32685 6.24969,4.17732 6.17347,3.39763 0.16296,-0.17118 -0.14041,-2.36771 0.53961,-3.33522 0.29553,-0.42048 -0.59079,-1.25606 -0.50215,-1.39016 0.21026,-0.31805 1.33929,0.2642 1.37451,0.25969 0.74071,-0.0948 0.53813,3.13673 0.62779,4.4288 -0.77671,3.01662 1.31478,5.00752 3.62491,6.42522 5.11234,5.1719 3.60599,-5.79016 4.06369,-6.21926 4.47913,1.20081 1.13502,12.92308 1.81141,14.81494 3.67626,5.70167 6.21472,-0.0397 8.56601,-5.38424 0.58307,-1.16254 2.9164,2.7392 2.64691,5.77232 -0.086,0.96761 -1.13309,1.01132 -1.68207,1.85924 -0.95093,1.27323 -3.14908,8.83016 -0.38466,8.73089 2.76443,-0.0993 3.37005,0.68531 3.37005,0.68531 0,0 0.44707,10.80934 -5.0846,13.94082 -3.79078,1.59407 -7.43961,1.19647 -12.3032,-1.52772 z"
       id="path11989"
       sodipodi:nodetypes="csscsccsscscccssscccccscsccc" />
    <path
       style="display:inline;fill:#1c8020;fill-opacity:1;stroke:none;stroke-width:0.264583px;stroke-linecap:butt;stroke-linejoin:miter;stroke-opacity:1"
       d="m 188.08055,92.345654 c -1.33924,3.723001 -2.18536,6.388818 -2.99782,9.742406 -0.0839,0.34614 4.3326,5.91875 4.31499,6.27177 -0.0697,1.39954 -4.26781,-1.21413 -5.18739,-2.14644 -1.06295,-1.07768 -0.90892,6.79423 -0.21323,11.21205 0.56288,0.25398 6.58843,3.07264 5.60773,4.40482 -0.29348,0.39861 -5.1596,-1.46562 -5.09214,-0.98352 0.8307,5.93701 -0.21856,7.28825 2.57062,11.16681 0,0 7.16201,3.38542 7.31158,3.92006 0.40382,1.4434 -4.26574,2.22646 -4.1153,1.80212 18.95774,16.02245 31.30915,10.91505 31.22095,-13.25285 0.49828,0.0935 -2.44352,2.58199 -3.21579,0.71793 -0.37504,-0.9053 1.80064,-4.17326 1.56834,-5.06164 -1.74409,-6.66869 -3.48736,-10.17541 -6.60179,-13.84397 0.3066,1.10052 -2.40432,8.5432 -3.12254,7.05829 -0.22877,-0.47299 0.86791,-9.1267 0.52662,-9.51026 -2.52328,-2.83551 -4.72667,-4.80676 -8.0197,-6.508614 -0.74443,-0.384783 -0.1304,7.324064 -0.90429,6.982664 -0.92671,-0.4088 -1.28312,-7.8131 -2.24625,-8.168286 -1.39724,-0.515267 -3.25118,-1.203491 -5.16148,-1.87071 -0.55684,-0.194524 1.07667,4.45256 0.52024,4.2664 -0.71971,-0.24066 -3.06238,-3.628016 -3.77748,-4.646579 -0.92927,-1.323605 -2.2492,-1.37695 -2.98584,-1.552536 z"
       id="path8170-85"
       sodipodi:nodetypes="cssscssssccsscsssssssscc" />
    <path
       style="display:inline;fill:#146317;fill-opacity:1;stroke:none;stroke-width:0.266161px;stroke-linecap:butt;stroke-linejoin:miter;stroke-opacity:1"
       d="m 195.30781,139.05298 c -0.15182,-1.83378 2.21713,-0.77445 2.843,-2.85534 0.88163,-2.93126 -6.90307,-3.78157 -6.90307,-3.78157 l -2.64136,-0.90983 c -2.64133,-0.90986 -1.91701,-7.73341 -1.91701,-7.73341 2.64409,0.98554 5.25238,1.32191 7.7479,-0.38691 0,0 -3.60755,-5.73209 -6.32533,-6.34086 -2.71776,-0.60879 -2.5235,-6.21913 -2.5235,-6.21913 0.15957,-0.73818 9.10222,4.75286 7.71415,0.0554 -1.4195,-4.80375 -5.39686,-8.37216 -5.39686,-8.37216 -1.30108,-2.832279 0.0606,-5.14659 0.61396,-7.228627 1.11707,-0.463327 2.6341,4.266608 5.07419,4.763987 1.45526,0.29662 1.95342,0.45201 2.22326,-0.963453 0.092,-0.482739 -0.85392,-2.101623 -0.61338,-2.914684 0.57203,0.161493 2.52612,0.416449 3.17703,1.157057 -0.0776,3.13403 -0.24275,6.37478 0.95851,8.37521 2.45364,3.77133 4.61589,-0.87581 4.61589,-0.87581 0.48909,-0.67864 -0.43687,-3.52533 0.16603,-3.93414 0.78304,-0.53093 3.04992,1.32921 3.8916,2.90066 1.53464,2.86544 0.23514,10.59083 0.23514,10.59083 0,0 0.62465,6.02645 3.48742,1.89085 1.13742,-1.64314 2.07113,-2.36116 1.99832,-3.1884 -0.0997,-1.13279 0.37267,-3.71743 0.58392,-3.69676 1.27245,0.1245 5.16616,8.26046 3.8301,9.91246 -1.12416,1.39002 -4.43261,8.19889 -1.34673,8.20599 3.0859,0.007 3.22246,0.45933 3.22246,0.45933 0,0 -0.47491,14.03408 -6.79815,17.31567 -4.58522,1.82168 -15.74616,-1.68636 -17.91752,-6.22634 z"
       id="path11989-3-9"
       sodipodi:nodetypes="cscsccscsccssccccsscsscssccc" />
    <path
       style="display:inline;fill:#17901b;fill-opacity:1;stroke:none;stroke-width:0.237626px;stroke-linecap:butt;stroke-linejoin:miter;stroke-opacity:1"
       d="m 200.1407,141.52487 c 0,0 -3.79146,-1.25511 -3.07254,-2.32854 0.37912,-0.56605 2.07071,-0.57393 2.54476,-3.31684 0.56974,-3.29673 -3.41704,-4.08898 -3.62513,-3.9888 l -4.45362,-1.54401 c -2.33332,-0.80894 -2.8072,-4.53888 -2.8072,-4.53888 2.32949,0.89353 5.48743,0.0499 7.70763,-1.48609 0,0 -0.14761,-3.52907 -3.71832,-6.41376 -1.26336,-1.02065 -3.35198,-1.24477 -4.50422,-2.21223 -1.33433,-1.12038 -1.61993,-2.92988 -1.22062,-3.21245 0.74967,0.0727 9.73337,5.56965 8.54226,0.56237 -1.0253,-4.3101 -1.5013,-6.6633 -3.15548,-7.82813 -4.97511,-2.5177 -4.02162,-12.075468 -2.59758,-7.230004 0.97157,3.418024 5.93035,4.486914 5.8973,3.693924 0.45972,-0.0775 0.8316,-0.85532 0.96958,-1.9874 0.0628,-0.515572 -0.77258,-2.666018 -0.67803,-2.798254 0.22423,-0.313629 1.30485,0.322292 1.33979,0.319158 0.73464,-0.06582 0.36097,3.199696 0.37966,4.512326 -0.92756,3.02438 1.02511,5.12664 3.22402,6.65713 4.75654,5.44808 3.86362,-5.71878 4.33755,-6.13482 4.34687,1.39924 0.42151,13.13838 0.98575,15.08257 3.31358,5.92621 6.12316,0.21332 8.72698,-5.10521 0.63697,-1.15392 2.72483,2.89402 2.29596,5.9558 -0.1369,0.97676 -1.17051,0.97834 -1.75691,1.81495 -1.0052,1.25108 -3.57746,8.81714 -0.84934,8.82937 2.7281,0.0122 3.28229,0.83176 3.28229,0.83176 0,0 -0.14216,10.96892 -5.75919,13.91567 -3.81952,1.46028 -7.39191,0.90861 -12.03535,-2.04962 z"
       id="path11989-7"
       sodipodi:nodetypes="csscsccsscscccssscccccscscccc" />
  </g>
  <g
     inkscape:groupmode="layer"
     id="layer5"
     inkscape:label="Ebene 4">
    <path
       style="display:inline;fill:#0c7410;fill-opacity:1;stroke:none;stroke-width:0.264583px;stroke-linecap:butt;stroke-linejoin:miter;stroke-opacity:1"
       d="m 443.49261,288.44741 c 1.20655,-4.47913 0.33034,-7.08508 -1.75396,-13.89543 -3.07818,-7.51663 -8.06601,-13.11902 -15.0548,-15.85868 -7.96223,-2.68916 -12.14605,-0.0885 -17.39339,1.02314 2.89275,-3.07534 13.22203,-9.03043 21.48596,-9.06211 18.4371,-0.53875 37.66479,15.51135 37.23531,25.65161 v 12.14147 z"
       id="path4467-1"
       sodipodi:nodetypes="cccccccc" />
    <path
       style="display:inline;fill:#0f6014;fill-opacity:1;stroke:none;stroke-width:0.264583px;stroke-linecap:butt;stroke-linejoin:miter;stroke-opacity:1"
       d="m 408.41348,260.44726 c 29.20122,-15.88497 47.71882,6.10828 47.6504,28.00015 h -12.57127 c 1.20479,-17.84853 -12.65744,-38.3171 -35.07913,-28.00015 z"
       id="path6541-9"
       sodipodi:nodetypes="cccc" />
    <path
       style="fill:url(#linearGradient10816);fill-opacity:1;stroke:none;stroke-width:0.264583px;stroke-linecap:butt;stroke-linejoin:miter;stroke-opacity:1"
       d="m 90.58453,200.24333 c -1.571395,-1.47563 -3.778652,-0.0751 -4.753317,-1.82109 -0.151596,-0.27157 -0.307938,-0.54067 -0.468864,-0.80727 -0.106262,-0.17604 -0.589892,-1.17682 -0.09239,-1.81446 0.679384,-0.87076 2.372785,-0.40203 2.215121,-0.63535 -0.167187,-0.24741 -0.911591,-0.63056 -2.016364,-0.51842 -0.880405,0.0894 -1.687993,0.6166 -1.832199,0.42614 -3.035514,-4.00907 -7.113183,-7.35357 -11.563361,-9.91968 -0.200299,-0.1155 1.389146,-0.74099 1.1874,-0.85333 -0.217081,-0.12087 -2.225463,0.27166 -2.444074,0.15448 -2.581948,-1.38404 -5.265279,-2.50994 -7.924644,-3.35643 -0.06924,-0.022 -0.635693,-0.62827 0.23465,-1.29336 0.296877,-0.22686 0.748595,-0.46272 1.24524,-0.69064 0.829799,-0.38082 1.785017,-0.73946 2.352984,-0.99691 0.509946,-0.23114 0.395059,-0.38072 0.359675,-0.39152 -0.293106,-0.0895 -2.616384,0.40388 -4.140379,1.16481 -1.372646,0.68537 -1.958933,1.6464 -2.221053,1.57757 -3.060062,-0.80353 -6.041793,-1.22297 -8.749308,-1.22507 -0.182161,-1.4e-4 0.422056,-0.71032 1.282968,-1.29158 0.907315,-0.61259 2.50914,-1.05734 2.447401,-1.23431 -0.142466,-0.40838 -2.495094,0.66608 -3.049662,1.1551 -1.032583,0.91054 -2.156717,1.47224 -2.156717,1.47224 0,-0.0375 -3.287585,0.11649 -4.695417,1.05487 l -5.02274,2.74315 c 6.464973,-10.2158 22.183004,-10.58388 27.551728,-8.6967 0,0 9.062106,2.92326 12.131529,4.96954 5.286664,3.44585 10.529395,10.64208 13.480064,20.68224 2.613458,8.89273 11.903166,15.39152 12.287626,18.10504 0.0626,0.44152 -0.43425,0.54179 -0.62765,0.74982 -5.1204,-7.26773 -15.01825,-18.70887 -15.01825,-18.70887 z"
       id="path2076"
       sodipodi:nodetypes="csssssssssssssssssssssccccssccc" />
    <path
       style="fill:url(#radialGradient12390);fill-opacity:1;stroke:none;stroke-width:0.264583px;stroke-linecap:butt;stroke-linejoin:miter;stroke-opacity:1"
       d="m 210.00002,147.99999 c -1.5714,-1.47563 -3.77865,-0.0751 -4.75332,-1.82109 -0.1516,-0.27157 -0.30794,-0.54067 -0.46886,-0.80727 -0.10626,-0.17604 -0.58989,-1.17682 -0.0924,-1.81446 0.67938,-0.87076 2.37278,-0.40203 2.21512,-0.63535 -0.16719,-0.24741 -0.91159,-0.63056 -2.01637,-0.51842 -0.8804,0.0894 -1.68799,0.6166 -1.83219,0.42614 -3.03552,-4.00907 -7.11319,-7.35357 -11.56337,-9.91968 -0.2003,-0.1155 1.38915,-0.74099 1.1874,-0.85333 -0.21708,-0.12087 -2.22546,0.27166 -2.44407,0.15448 -2.58195,-1.38404 -5.26528,-2.50994 -7.92464,-3.35643 -0.0692,-0.022 -0.6357,-0.62827 0.23465,-1.29336 0.29687,-0.22686 0.74859,-0.46272 1.24524,-0.69064 0.82979,-0.38082 1.78501,-0.73946 2.35298,-0.99691 0.50995,-0.23114 0.39506,-0.38072 0.35967,-0.39152 -0.2931,-0.0895 -2.61638,0.40388 -4.14037,1.16481 -1.37265,0.68537 -1.95894,1.6464 -2.22106,1.57757 -3.06006,-0.80353 -6.04179,-1.22297 -8.7493,-1.22507 -0.18217,-1.4e-4 0.42205,-0.71032 1.28296,-1.29158 0.90732,-0.61259 2.50914,-1.05734 2.4474,-1.23431 -0.14246,-0.40838 -2.49509,0.66608 -3.04966,1.1551 -1.03258,0.91054 -2.15671,1.47224 -2.15671,1.47224 0,-0.0375 -3.28759,0.11649 -4.69542,1.05487 l -5.02274,2.74315 c 6.46497,-10.2158 22.183,-10.58388 27.55173,-8.6967 0,0 9.0621,2.92326 12.13152,4.96954 5.28667,3.44585 10.5294,10.64208 13.48007,20.68224 2.61346,8.89273 11.90317,15.39152 12.28763,18.10504 0.0626,0.44152 -0.43425,0.54179 -0.62765,0.74982 C 219.89786,159.44114 210,148 210,148 Z"
       id="path2076-1"
       sodipodi:nodetypes="csssssssssssssssssssssccccssccc" />
    <path
       style="fill:url(#radialGradient12390-3);fill-opacity:1;stroke:none;stroke-width:0.170233px;stroke-linecap:butt;stroke-linejoin:miter;stroke-opacity:1"
       d="m 269.14062,121.65045 c -0.69768,-1.64955 -1.67766,-0.72813 -2.11041,-2.52585 -0.0673,-0.27962 -0.13672,-0.55775 -0.20816,-0.83435 -0.0472,-0.18265 -0.26191,-1.19999 -0.0411,-1.7079 0.30164,-0.69355 1.05349,0.0384 0.98349,-0.20657 -0.0742,-0.25979 -0.40474,-0.7467 -0.89524,-0.83456 -0.39089,-0.07 -0.74945,0.28091 -0.81348,0.0782 -1.34773,-4.2667 -3.15816,-8.09527 -5.13398,-11.26297 -0.0889,-0.14257 0.61677,-0.44894 0.52719,-0.58882 -0.0964,-0.15052 -0.98808,-0.13433 -1.08514,-0.28165 -1.14635,-1.74017 -2.33771,-3.2573 -3.51843,-4.509737 -0.0307,-0.03254 -0.28225,-0.696515 0.10418,-1.165046 0.13181,-0.159812 0.33237,-0.301046 0.55287,-0.427054 0.36842,-0.210543 0.79252,-0.378562 1.04469,-0.519679 0.22641,-0.126694 0.1754,-0.286169 0.15969,-0.302403 -0.13014,-0.134503 -1.16164,-0.07913 -1.83827,0.364911 -0.60944,0.39995 -0.86974,1.193884 -0.98612,1.084049 -1.35863,-1.282175 -2.68248,-2.19259 -3.88458,-2.666123 -0.0809,-0.03187 0.18739,-0.588778 0.56962,-0.98079 0.40284,-0.413138 1.11402,-0.548825 1.08662,-0.724578 -0.0633,-0.405599 -1.10779,0.186464 -1.35401,0.545829 -0.45845,0.669126 -0.95755,0.997052 -0.95755,0.997052 0,-0.03496 -1.45966,-0.463999 -2.08471,0.165735 l -2.23003,1.682836 c 2.87036,-8.399024 9.84896,-6.004565 12.23261,-3.3099 0,0 4.02345,4.30397 5.38623,6.746498 2.34722,4.13365 4.67492,11.75645 5.98498,21.63165 1.16034,8.74663 5.28485,16.42401 5.45555,19.02101 0.0278,0.42259 -0.1928,0.42953 -0.27867,0.58981 -2.27339,-7.66815 -6.66791,-20.05962 -6.66791,-20.05962 z"
       id="path2076-1-7"
       sodipodi:nodetypes="csssssssssssssssssssssccccssccc" />
    <path
       style="fill:url(#radialGradient12390-3-7);fill-opacity:1;stroke:none;stroke-width:0.170233px;stroke-linecap:butt;stroke-linejoin:miter;stroke-opacity:1"
       d="m 210.48215,140.06285 c 0.0686,-1.78971 -1.20985,-1.37149 -0.83846,-3.18288 0.0578,-0.28174 0.113,-0.56304 0.16575,-0.8438 0.0348,-0.18541 0.27231,-1.19767 0.68786,-1.5638 0.56755,-0.49988 0.93754,0.48202 0.97816,0.2305 0.0431,-0.26671 -0.0494,-0.84789 -0.45625,-1.13568 -0.3242,-0.22933 -0.79782,-0.0638 -0.76973,-0.27455 0.59114,-4.43528 0.57735,-8.6703 0.13325,-12.37718 -0.02,-0.16682 0.74902,-0.14463 0.7273,-0.30931 -0.0234,-0.1772 -0.83759,-0.5411 -0.86293,-0.71569 -0.29914,-2.06224 -0.73372,-3.94164 -1.27105,-5.57687 -0.014,-0.0425 0.0401,-0.75046 0.58894,-1.01062 0.18719,-0.0887 0.42874,-0.13146 0.68188,-0.15194 0.42295,-0.0342 0.87826,-0.006 1.16649,-0.027 0.25879,-0.0186 0.2803,-0.18464 0.27297,-0.206 -0.0607,-0.17704 -1.01818,-0.56479 -1.81931,-0.45003 -0.72158,0.10338 -1.29432,0.7117 -1.35306,0.56286 -0.68578,-1.7377 -1.4979,-3.12402 -2.38525,-4.06311 -0.0597,-0.0632 0.41963,-0.45353 0.93212,-0.64618 0.54013,-0.20304 1.24164,-0.024 1.29145,-0.19473 0.11488,-0.3941 -1.08216,-0.30147 -1.45766,-0.0806 -0.69915,0.4112 -1.29026,0.49622 -1.29026,0.49622 0.0149,-0.0317 -1.1246,-1.03979 -1.95788,-0.73499 l -2.73352,0.57692 c 6.16458,-6.38597 11.46652,-1.2553 12.4807,2.19644 0,0 1.81565,5.60497 2.01257,8.395 0.37029,4.73914 -0.75839,12.62909 -3.76468,22.12636 -2.66273,8.41188 -2.18773,17.11407 -3.13571,19.53789 -0.15423,0.39441 -0.35691,0.30704 -0.50271,0.41571 1.19711,-7.90796 2.47896,-20.99296 2.47896,-20.99296 z"
       id="path2076-1-7-7"
       sodipodi:nodetypes="csssssssssssssssssssssccccssccc" />
    <path
       style="fill:url(#radialGradient12390-3-1);fill-opacity:1;stroke:none;stroke-width:0.170233px;stroke-linecap:butt;stroke-linejoin:miter;stroke-opacity:1"
       d="m 199.64018,148.00002 c -0.69768,-1.64955 -1.67766,-0.72813 -2.11041,-2.52585 -0.0673,-0.27962 -0.13672,-0.55775 -0.20816,-0.83435 -0.0472,-0.18265 -0.26191,-1.19999 -0.0411,-1.7079 0.30164,-0.69355 1.05349,0.0384 0.98349,-0.20657 -0.0742,-0.25979 -0.40474,-0.7467 -0.89524,-0.83456 -0.39089,-0.07 -0.74945,0.28091 -0.81348,0.0782 -1.34773,-4.2667 -3.15816,-8.09527 -5.13398,-11.26297 -0.0889,-0.14257 0.61677,-0.44894 0.52719,-0.58882 -0.0964,-0.15052 -0.98808,-0.13433 -1.08514,-0.28165 -1.14635,-1.74017 -2.33771,-3.2573 -3.51843,-4.50974 -0.0307,-0.0325 -0.28225,-0.69652 0.10418,-1.16505 0.13181,-0.15981 0.33237,-0.30104 0.55287,-0.42705 0.36842,-0.21054 0.79252,-0.37856 1.04469,-0.51968 0.22641,-0.12669 0.1754,-0.28617 0.15969,-0.3024 -0.13014,-0.13451 -1.16164,-0.0791 -1.83827,0.36491 -0.60944,0.39995 -0.86974,1.19388 -0.98612,1.08405 -1.35863,-1.28218 -2.68248,-2.19259 -3.88458,-2.66613 -0.0809,-0.0319 0.18739,-0.58877 0.56962,-0.98079 0.40284,-0.41313 1.11402,-0.54882 1.08662,-0.72457 -0.0633,-0.4056 -1.10779,0.18646 -1.35401,0.54583 -0.45845,0.66912 -0.95755,0.99705 -0.95755,0.99705 0,-0.035 -1.45966,-0.464 -2.08471,0.16573 l -2.23003,1.68284 c 2.87036,-8.39903 9.84896,-6.00457 12.23261,-3.3099 0,0 4.02345,4.30397 5.38623,6.7465 2.34722,4.13365 4.67492,11.75645 5.98498,21.63165 1.16034,8.74663 5.28485,16.42401 5.45555,19.02101 0.0278,0.42259 -0.1928,0.42953 -0.27867,0.58981 C 204.03463,160.39147 199.64011,148 199.64011,148 Z"
       id="path2076-1-7-4"
       sodipodi:nodetypes="csssssssssssssssssssssccccssccc" />
    <path
       style="fill:url(#radialGradient12390-3-6);fill-opacity:1;stroke:none;stroke-width:0.170233px;stroke-linecap:butt;stroke-linejoin:miter;stroke-opacity:1"
       d="m 204.82496,137.31365 c -1.01764,-1.28601 -1.88969,-0.16785 -2.65421,-1.66502 -0.1189,-0.23287 -0.23978,-0.46378 -0.3625,-0.69272 -0.0811,-0.15116 -0.48198,-1.00725 -0.33717,-1.53038 0.19787,-0.71439 1.11455,-0.27284 0.99877,-0.47364 -0.12274,-0.21296 -0.55417,-0.55619 -1.08514,-0.49236 -0.42315,0.0509 -0.73985,0.47243 -0.84207,0.30808 -2.15171,-3.45978 -4.71463,-6.38884 -7.33776,-8.6728 -0.11802,-0.10281 0.5714,-0.58547 0.45312,-0.68564 -0.12729,-0.10779 -1.06228,0.16711 -1.18971,0.0624 -1.50509,-1.2369 -3.01914,-2.25923 -4.47643,-3.04565 -0.0379,-0.0204 -0.41672,-0.54662 -0.091,-1.08251 0.11112,-0.1828 0.29774,-0.36889 0.50795,-0.54704 0.35123,-0.29769 0.76833,-0.57321 1.00925,-0.77426 0.21631,-0.18051 0.13521,-0.30964 0.1159,-0.31971 -0.16002,-0.0835 -1.2353,0.26764 -1.87049,0.86614 -0.57211,0.53908 -0.70922,1.33205 -0.85052,1.26683 -1.64952,-0.76133 -3.19848,-1.19708 -4.54421,-1.27383 -0.0906,-0.005 0.0957,-0.58638 0.43026,-1.05201 0.35256,-0.49068 1.07715,-0.82082 1.01808,-0.97153 -0.13638,-0.34781 -1.13296,0.49175 -1.33005,0.88817 -0.36699,0.73809 -0.83545,1.17992 -0.83545,1.17992 -0.006,-0.0316 -1.61497,0.007 -2.16395,0.7582 l -2.05567,2.17069 c 1.57322,-8.42289 9.32463,-8.29754 12.29526,-6.55982 0,0 4.97214,2.7124 6.82572,4.52042 3.17996,3.04788 6.9399,9.25244 10.01723,17.78817 2.72564,7.56024 8.38464,13.28962 9.01113,15.58509 0.10196,0.37353 -0.12885,0.44418 -0.19157,0.61399 -3.71062,-6.26138 -10.4649,-16.16915 -10.4649,-16.16915 z"
       id="path2076-1-7-6"
       sodipodi:nodetypes="csssssssssssssssssssssccccssccc" />
    <path
       style="fill:url(#radialGradient12390-3-6-3);fill-opacity:1;stroke:none;stroke-width:0.170233px;stroke-linecap:butt;stroke-linejoin:miter;stroke-opacity:1"
       d="m 212.17605,143.57448 c -0.69652,-1.48467 -1.80121,-0.5956 -2.20302,-2.22795 -0.0625,-0.25388 -0.12735,-0.50633 -0.19447,-0.75727 -0.0444,-0.1657 -0.23883,-1.09079 0.0218,-1.56693 0.35603,-0.6502 1.14741,-0.0107 1.08063,-0.23265 -0.0708,-0.23539 -0.41227,-0.66819 -0.94377,-0.7275 -0.42357,-0.0472 -0.82828,0.2907 -0.8902,0.10732 -1.30337,-3.86021 -3.12843,-7.29781 -5.15964,-10.12119 -0.0914,-0.12707 0.69017,-0.43925 0.59793,-0.56382 -0.0993,-0.13405 -1.07234,-0.0803 -1.17244,-0.21136 -1.1823,-1.54836 -2.42239,-2.88988 -3.66118,-3.98876 -0.0322,-0.0285 -0.28065,-0.62744 0.159,-1.07463 0.14998,-0.15254 0.37422,-0.29101 0.6196,-0.41636 0.41,-0.20947 0.87906,-0.38229 1.15959,-0.5229 0.25186,-0.12626 0.20244,-0.27051 0.18595,-0.28473 -0.13668,-0.11789 -1.26377,-0.022 -2.01901,0.41537 -0.68024,0.39393 -0.99509,1.13453 -1.11772,1.03872 -1.43167,-1.11843 -2.83991,-1.8969 -4.13241,-2.27941 -0.0871,-0.0256 0.22728,-0.54895 0.65947,-0.92571 0.45544,-0.39704 1.23633,-0.5527 1.2133,-0.71293 -0.0532,-0.36978 -1.21541,0.21959 -1.49794,0.56042 -0.52608,0.63459 -1.08317,0.95756 -1.08317,0.95756 0.001,-0.0321 -1.57376,-0.36255 -2.28001,0.24317 l -2.49765,1.64299 c 3.45798,-7.8398 10.97525,-5.94489 13.46969,-3.5738 0,0 4.21997,3.77772 5.61089,5.96176 2.39857,3.6944 4.63975,10.59446 5.68324,19.60777 0.92423,7.98324 5.12282,14.85507 5.20768,17.23299 0.0138,0.38694 -0.22702,0.40292 -0.32692,0.5539 -2.18017,-6.9441 -6.48934,-18.13406 -6.48934,-18.13406 z"
       id="path2076-1-7-6-8"
       sodipodi:nodetypes="csssssssssssssssssssssccccssccc" />
    <path
       style="fill:url(#radialGradient12390-3-6-3-8);fill-opacity:1;stroke:none;stroke-width:0.170233px;stroke-linecap:butt;stroke-linejoin:miter;stroke-opacity:1"
       d="m 210.48395,150.61961 c -1.22476,-1.09057 -1.89023,0.16161 -2.90223,-1.18073 -0.1574,-0.20878 -0.3164,-0.41531 -0.47689,-0.61956 -0.10605,-0.13484 -0.64897,-0.90868 -0.59684,-1.44897 0.0713,-0.73786 1.05054,-0.46156 0.90177,-0.6393 -0.15775,-0.1885 -0.64203,-0.45192 -1.15396,-0.29719 -0.40795,0.12336 -0.64695,0.5933 -0.77606,0.44911 -2.71784,-3.03536 -5.74885,-5.47685 -8.72756,-7.27256 -0.13405,-0.0808 0.46151,-0.67549 0.32767,-0.75368 -0.14405,-0.0841 -1.01735,0.34835 -1.16097,0.26728 -1.69639,-0.95787 -3.36447,-1.70284 -4.93584,-2.22528 -0.0408,-0.0135 -0.505,-0.46629 -0.27691,-1.05045 0.0778,-0.19926 0.22943,-0.41483 0.40565,-0.62666 0.29442,-0.35397 0.65757,-0.6975 0.86009,-0.93719 0.18181,-0.21522 0.0796,-0.32837 0.0588,-0.33494 -0.17207,-0.0546 -1.17038,0.4773 -1.69245,1.17668 -0.47022,0.62993 -0.46808,1.43467 -0.61852,1.39487 -1.75636,-0.46448 -3.35736,-0.62568 -4.69607,-0.46845 -0.0901,0.0108 -0.007,-0.5941 0.24178,-1.11058 0.26235,-0.54428 0.91889,-0.9948 0.83464,-1.13302 -0.19448,-0.31898 -1.03081,0.68035 -1.15634,1.10488 -0.23377,0.79046 -0.61872,1.30666 -0.61872,1.30666 -0.0117,-0.0299 -1.5894,0.2863 -2.00015,1.12115 l -1.64913,2.4936 c 0.0923,-8.56805 7.74851,-9.78562 10.97498,-8.58804 0,0 5.36641,1.8113 7.50485,3.27137 3.65931,2.45177 8.43597,7.91228 12.94362,15.78691 3.9925,6.97469 10.55738,11.63864 11.57155,13.79112 0.16502,0.35026 -0.0501,0.45976 -0.0825,0.63788 -4.73791,-5.52502 -13.10444,-14.11486 -13.10444,-14.11486 z"
       id="path2076-1-7-6-8-9"
       sodipodi:nodetypes="csssssssssssssssssssssccccssccc" />
    <path
       style="fill:url(#radialGradient12390-3-6-3-8-2);fill-opacity:1;stroke:none;stroke-width:0.234278px;stroke-linecap:butt;stroke-linejoin:miter;stroke-opacity:1"
       d="m 210,148 c -2.19582,-0.5338 -2.23047,1.40657 -4.32191,0.43203 -0.32528,-0.15157 -0.65114,-0.2994 -0.9774,-0.44352 -0.21551,-0.0951 -1.37124,-0.68283 -1.64622,-1.36948 -0.3754,-0.9378 1.0062,-1.2312 0.71105,-1.35077 -0.31299,-0.12683 -1.07586,-0.13502 -1.61026,0.38009 -0.42581,0.41054 -0.42556,1.13187 -0.67539,1.04026 -5.25908,-1.92849 -10.53158,-2.93829 -15.33402,-3.2008 -0.21612,-0.0118 0.14518,-1.11243 -0.0691,-1.12121 -0.23052,-0.009 -1.03634,1.07305 -1.26443,1.06706 -2.69433,-0.0712 -5.22003,0.0969 -7.48669,0.47215 -0.0588,0.01 -0.91583,-0.2402 -1.00128,-1.09264 -0.0291,-0.29078 0.0225,-0.64856 0.10693,-1.0176 0.14094,-0.61662 0.37322,-1.26467 0.47256,-1.68423 0.0891,-0.37672 -0.108,-0.44803 -0.13783,-0.44263 -0.24658,0.0442 -1.14416,1.32702 -1.34904,2.50713 -0.18453,1.06293 0.32347,2.03455 0.11287,2.08282 -2.45848,0.56381 -4.53483,1.39475 -6.08765,2.44264 -0.10438,0.0708 -0.38195,-0.7137 -0.39913,-1.49768 -0.0181,-0.82619 0.50892,-1.79157 0.31819,-1.90471 -0.44024,-0.26105 -0.84446,1.48309 -0.73275,2.07681 0.20799,1.10551 0.0572,1.97629 0.0572,1.97629 -0.0332,-0.0286 -1.78103,1.36457 -1.76351,2.63715 l -0.46861,4.07163 c -5.2666,-10.41851 3.41419,-16.7964 8.14668,-17.41581 0,0 7.75792,-1.24857 11.31297,-0.85346 6.05408,0.61964 15.37602,4.16111 25.88208,10.79378 9.30537,5.87468 20.33321,7.30724 22.93607,9.2599 0.42354,0.31775 0.22686,0.58801 0.2988,0.8241 -9.31465,-3.64429 -25.0305,-8.66911 -25.0305,-8.66911 z"
       id="path2076-1-7-6-8-9-5"
       sodipodi:nodetypes="csssssssssssssssssssssccccssccc" />
    <path
       style="fill:url(#radialGradient12390-3-4);fill-opacity:1;stroke:none;stroke-width:0.170233px;stroke-linecap:butt;stroke-linejoin:miter;stroke-opacity:1"
       d="m 211.38478,137.75423 c -0.69768,-1.64955 -1.67766,-0.72813 -2.11041,-2.52585 -0.0673,-0.27962 -0.13672,-0.55775 -0.20816,-0.83435 -0.0472,-0.18265 -0.26191,-1.19999 -0.0411,-1.7079 0.30164,-0.69355 1.05349,0.0384 0.98349,-0.20657 -0.0742,-0.25979 -0.40474,-0.7467 -0.89524,-0.83456 -0.39089,-0.07 -0.74945,0.28091 -0.81348,0.0782 -1.34773,-4.2667 -3.15816,-8.09527 -5.13398,-11.26297 -0.0889,-0.14257 0.61677,-0.44894 0.52719,-0.58882 -0.0964,-0.15052 -0.98808,-0.13433 -1.08514,-0.28165 -1.14635,-1.74017 -2.33771,-3.2573 -3.51843,-4.50973 -0.0307,-0.0325 -0.28225,-0.69652 0.10418,-1.16505 0.13181,-0.15981 0.33237,-0.30105 0.55287,-0.42705 0.36842,-0.21055 0.79252,-0.37857 1.04469,-0.51968 0.22641,-0.1267 0.1754,-0.28617 0.15969,-0.30241 -0.13014,-0.1345 -1.16164,-0.0791 -1.83827,0.36491 -0.60944,0.39995 -0.86974,1.19389 -0.98612,1.08405 -1.35863,-1.28217 -2.68248,-2.19259 -3.88458,-2.66612 -0.0809,-0.0319 0.18739,-0.58878 0.56962,-0.98079 0.40284,-0.41314 1.11402,-0.54882 1.08662,-0.72458 -0.0633,-0.4056 -1.10779,0.18647 -1.35401,0.54583 -0.45845,0.66913 -0.95755,0.99705 -0.95755,0.99705 0,-0.035 -1.45966,-0.464 -2.08471,0.16574 l -2.23003,1.68283 c 2.87036,-8.39902 9.84896,-6.00456 12.23261,-3.3099 0,0 4.02345,4.30397 5.38623,6.7465 2.34722,4.13365 4.67492,11.75645 5.98498,21.63165 1.16034,8.74663 5.28485,16.42401 5.45555,19.02101 0.0278,0.42259 -0.1928,0.42953 -0.27867,0.58981 -2.27339,-7.66815 -6.66791,-20.05962 -6.66791,-20.05962 z"
       id="path2076-1-7-0"
       sodipodi:nodetypes="csssssssssssssssssssssccccssccc" />
  </g>
</svg>
