<svg id="visual" viewBox="0 0 900 600" width="900" height="600" xmlns="http://www.w3.org/2000/svg" xmlns:xlink="http://www.w3.org/1999/xlink" version="1.1"><path d="M0 193L21.5 200.3C43 207.7 86 222.3 128.8 227.5C171.7 232.7 214.3 228.3 257.2 219C300 209.7 343 195.3 385.8 198.3C428.7 201.3 471.3 221.7 514.2 218.3C557 215 600 188 642.8 185.5C685.7 183 728.3 205 771.2 216C814 227 857 227 878.5 227L900 227L900 0L878.5 0C857 0 814 0 771.2 0C728.3 0 685.7 0 642.8 0C600 0 557 0 514.2 0C471.3 0 428.7 0 385.8 0C343 0 300 0 257.2 0C214.3 0 171.7 0 128.8 0C86 0 43 0 21.5 0L0 0Z" fill="#fa7268"></path><path d="M0 191L21.5 185.8C43 180.7 86 170.3 128.8 159C171.7 147.7 214.3 135.3 257.2 130.2C300 125 343 127 385.8 134.3C428.7 141.7 471.3 154.3 514.2 156.7C557 159 600 151 642.8 156.2C685.7 161.3 728.3 179.7 771.2 184C814 188.3 857 178.7 878.5 173.8L900 169L900 0L878.5 0C857 0 814 0 771.2 0C728.3 0 685.7 0 642.8 0C600 0 557 0 514.2 0C471.3 0 428.7 0 385.8 0C343 0 300 0 257.2 0C214.3 0 171.7 0 128.8 0C86 0 43 0 21.5 0L0 0Z" fill="#db594e"></path><path d="M0 125L21.5 129.5C43 134 86 143 128.8 139.8C171.7 136.7 214.3 121.3 257.2 116.3C300 111.3 343 116.7 385.8 117C428.7 117.3 471.3 112.7 514.2 111.3C557 110 600 112 642.8 110.3C685.7 108.7 728.3 103.3 771.2 106.8C814 110.3 857 122.7 878.5 128.8L900 135L900 0L878.5 0C857 0 814 0 771.2 0C728.3 0 685.7 0 642.8 0C600 0 557 0 514.2 0C471.3 0 428.7 0 385.8 0C343 0 300 0 257.2 0C214.3 0 171.7 0 128.8 0C86 0 43 0 21.5 0L0 0Z" fill="#bd4036"></path><path d="M0 79L21.5 75.5C43 72 86 65 128.8 71C171.7 77 214.3 96 257.2 95.8C300 95.7 343 76.3 385.8 70.2C428.7 64 471.3 71 514.2 74.3C557 77.7 600 77.3 642.8 80C685.7 82.7 728.3 88.3 771.2 92C814 95.7 857 97.3 878.5 98.2L900 99L900 0L878.5 0C857 0 814 0 771.2 0C728.3 0 685.7 0 642.8 0C600 0 557 0 514.2 0C471.3 0 428.7 0 385.8 0C343 0 300 0 257.2 0C214.3 0 171.7 0 128.8 0C86 0 43 0 21.5 0L0 0Z" fill="#9f271e"></path><path d="M0 28L21.5 27.8C43 27.7 86 27.3 128.8 29.2C171.7 31 214.3 35 257.2 41.7C300 48.3 343 57.7 385.8 55.7C428.7 53.7 471.3 40.3 514.2 35C557 29.7 600 32.3 642.8 33.8C685.7 35.3 728.3 35.7 771.2 35.3C814 35 857 34 878.5 33.5L900 33L900 0L878.5 0C857 0 814 0 771.2 0C728.3 0 685.7 0 642.8 0C600 0 557 0 514.2 0C471.3 0 428.7 0 385.8 0C343 0 300 0 257.2 0C214.3 0 171.7 0 128.8 0C86 0 43 0 21.5 0L0 0Z" fill="#810606"></path></svg>