<svg id="visual" viewBox="0 0 900 600" width="900" height="600" xmlns="http://www.w3.org/2000/svg" xmlns:xlink="http://www.w3.org/1999/xlink" version="1.1"><g stroke-width="0.25" stroke-linejoin="bevel"><path d="M451 327.3L494.3 372.8L496.3 319.3Z" fill="#450000" stroke="#000000"></path><path d="M451 327.3L439 379.8L494.3 372.8Z" fill="#821301" stroke="#000000"></path><path d="M561.5 320.3L515.3 278.7L496.3 319.3Z" fill="#450000" stroke="#000000"></path><path d="M496.3 319.3L446 264.7L451 327.3Z" fill="#8a1900" stroke="#000000"></path><path d="M456 436.4L500.3 425.4L494.3 372.8Z" fill="#3e0000" stroke="#000000"></path><path d="M494.3 372.8L561.5 320.3L496.3 319.3Z" fill="#000000" stroke="#000000"></path><path d="M515.3 278.7L446 264.7L496.3 319.3Z" fill="#000000" stroke="#000000"></path><path d="M451 327.3L391.8 324.3L439 379.8Z" fill="#4d0000" stroke="#000000"></path><path d="M570.5 373.8L561.5 320.3L494.3 372.8Z" fill="#790e02" stroke="#000000"></path><path d="M446 264.7L391.8 324.3L451 327.3Z" fill="#560000" stroke="#000000"></path><path d="M390.8 389.8L456 436.4L439 379.8Z" fill="#450000" stroke="#000000"></path><path d="M439 379.8L456 436.4L494.3 372.8Z" fill="#821301" stroke="#000000"></path><path d="M500.3 425.4L570.5 373.8L494.3 372.8Z" fill="#4d0000" stroke="#000000"></path><path d="M391.8 324.3L390.8 389.8L439 379.8Z" fill="#560000" stroke="#000000"></path><path d="M615.8 326.3L576.5 282.7L561.5 320.3Z" fill="#000000" stroke="#000000"></path><path d="M561.5 320.3L576.5 282.7L515.3 278.7Z" fill="#680301" stroke="#000000"></path><path d="M515.3 278.7L498.3 216.2L446 264.7Z" fill="#3e0000" stroke="#000000"></path><path d="M493.3 489.9L552.5 437.4L500.3 425.4Z" fill="#000000" stroke="#000000"></path><path d="M500.3 425.4L552.5 437.4L570.5 373.8Z" fill="#450000" stroke="#000000"></path><path d="M446 264.7L378.8 261.7L391.8 324.3Z" fill="#790e02" stroke="#000000"></path><path d="M391.8 324.3L333.5 385.8L390.8 389.8Z" fill="#710802" stroke="#000000"></path><path d="M333.5 434.4L389.8 442.4L390.8 389.8Z" fill="#4d0000" stroke="#000000"></path><path d="M390.8 389.8L389.8 442.4L456 436.4Z" fill="#4d0000" stroke="#000000"></path><path d="M456 436.4L493.3 489.9L500.3 425.4Z" fill="#4d0000" stroke="#000000"></path><path d="M554.5 227.2L498.3 216.2L515.3 278.7Z" fill="#790e02" stroke="#000000"></path><path d="M446 264.7L399.8 230.2L378.8 261.7Z" fill="#560000" stroke="#000000"></path><path d="M498.3 216.2L437 220.2L446 264.7Z" fill="#821301" stroke="#000000"></path><path d="M437 220.2L399.8 230.2L446 264.7Z" fill="#600000" stroke="#000000"></path><path d="M617.8 366.8L615.8 326.3L570.5 373.8Z" fill="#4d0000" stroke="#000000"></path><path d="M570.5 373.8L615.8 326.3L561.5 320.3Z" fill="#600000" stroke="#000000"></path><path d="M615.8 220.2L554.5 227.2L576.5 282.7Z" fill="#680301" stroke="#000000"></path><path d="M576.5 282.7L554.5 227.2L515.3 278.7Z" fill="#710802" stroke="#000000"></path><path d="M605.8 442.4L617.8 366.8L570.5 373.8Z" fill="#8a1900" stroke="#000000"></path><path d="M442 488.9L493.3 489.9L456 436.4Z" fill="#4d0000" stroke="#000000"></path><path d="M615.8 326.3L611.8 284.7L576.5 282.7Z" fill="#710802" stroke="#000000"></path><path d="M389.8 442.4L442 488.9L456 436.4Z" fill="#821301" stroke="#000000"></path><path d="M325.5 320.3L333.5 385.8L391.8 324.3Z" fill="#600000" stroke="#000000"></path><path d="M337.5 258.7L325.5 320.3L378.8 261.7Z" fill="#790e02" stroke="#000000"></path><path d="M378.8 261.7L325.5 320.3L391.8 324.3Z" fill="#000000" stroke="#000000"></path><path d="M572.5 493.9L605.8 442.4L552.5 437.4Z" fill="#450000" stroke="#000000"></path><path d="M552.5 437.4L605.8 442.4L570.5 373.8Z" fill="#600000" stroke="#000000"></path><path d="M348.5 481.9L405.8 491.9L389.8 442.4Z" fill="#560000" stroke="#000000"></path><path d="M389.8 442.4L405.8 491.9L442 488.9Z" fill="#790e02" stroke="#000000"></path><path d="M460 556.5L517.3 533.5L493.3 489.9Z" fill="#821301" stroke="#000000"></path><path d="M351.5 209.2L337.5 258.7L378.8 261.7Z" fill="#3e0000" stroke="#000000"></path><path d="M268.3 392.8L333.5 434.4L333.5 385.8Z" fill="#560000" stroke="#000000"></path><path d="M333.5 385.8L333.5 434.4L390.8 389.8Z" fill="#450000" stroke="#000000"></path><path d="M507.3 168.6L448 171.6L498.3 216.2Z" fill="#4d0000" stroke="#000000"></path><path d="M498.3 216.2L448 171.6L437 220.2Z" fill="#790e02" stroke="#000000"></path><path d="M437 220.2L397.8 172.6L399.8 230.2Z" fill="#790e02" stroke="#000000"></path><path d="M399.8 230.2L351.5 209.2L378.8 261.7Z" fill="#710802" stroke="#000000"></path><path d="M493.3 489.9L572.5 493.9L552.5 437.4Z" fill="#680301" stroke="#000000"></path><path d="M517.3 533.5L572.5 493.9L493.3 489.9Z" fill="#821301" stroke="#000000"></path><path d="M572.5 151.6L507.3 168.6L554.5 227.2Z" fill="#4d0000" stroke="#000000"></path><path d="M554.5 227.2L507.3 168.6L498.3 216.2Z" fill="#710802" stroke="#000000"></path><path d="M397.8 172.6L351.5 209.2L399.8 230.2Z" fill="#821301" stroke="#000000"></path><path d="M679 228.2L615.8 220.2L611.8 284.7Z" fill="#560000" stroke="#000000"></path><path d="M611.8 284.7L615.8 220.2L576.5 282.7Z" fill="#000000" stroke="#000000"></path><path d="M686 268.7L611.8 284.7L615.8 326.3Z" fill="#560000" stroke="#000000"></path><path d="M333.5 434.4L348.5 481.9L389.8 442.4Z" fill="#790e02" stroke="#000000"></path><path d="M351.5 150.6L397.8 172.6L394.8 115.1Z" fill="#4d0000" stroke="#000000"></path><path d="M448 171.6L397.8 172.6L437 220.2Z" fill="#821301" stroke="#000000"></path><path d="M391.8 535.5L442 488.9L405.8 491.9Z" fill="#3e0000" stroke="#000000"></path><path d="M460 556.5L493.3 489.9L442 488.9Z" fill="#450000" stroke="#000000"></path><path d="M293.3 275.7L281.3 340.3L325.5 320.3Z" fill="#560000" stroke="#000000"></path><path d="M325.5 320.3L281.3 340.3L333.5 385.8Z" fill="#3e0000" stroke="#000000"></path><path d="M333.5 434.4L285.3 486.9L348.5 481.9Z" fill="#560000" stroke="#000000"></path><path d="M293.3 275.7L325.5 320.3L337.5 258.7Z" fill="#680301" stroke="#000000"></path><path d="M680 426.4L673 369.8L617.8 366.8Z" fill="#450000" stroke="#000000"></path><path d="M617.8 366.8L677 341.3L615.8 326.3Z" fill="#680301" stroke="#000000"></path><path d="M680 426.4L617.8 366.8L605.8 442.4Z" fill="#3e0000" stroke="#000000"></path><path d="M283.3 206.2L293.3 275.7L337.5 258.7Z" fill="#790e02" stroke="#000000"></path><path d="M609.8 557.5L620.8 481.9L572.5 493.9Z" fill="#8a1900" stroke="#000000"></path><path d="M572.5 493.9L620.8 481.9L605.8 442.4Z" fill="#4d0000" stroke="#000000"></path><path d="M673 369.8L677 341.3L617.8 366.8Z" fill="#4d0000" stroke="#000000"></path><path d="M517.3 533.5L553.5 537.5L572.5 493.9Z" fill="#600000" stroke="#000000"></path><path d="M348.5 481.9L391.8 535.5L405.8 491.9Z" fill="#560000" stroke="#000000"></path><path d="M517.3 533.5L548.5 600L553.5 537.5Z" fill="#8a1900" stroke="#000000"></path><path d="M391.8 535.5L460 556.5L442 488.9Z" fill="#450000" stroke="#000000"></path><path d="M227 385.8L268.3 392.8L281.3 340.3Z" fill="#680301" stroke="#000000"></path><path d="M281.3 340.3L268.3 392.8L333.5 385.8Z" fill="#3e0000" stroke="#000000"></path><path d="M348.5 481.9L347.5 541.5L391.8 535.5Z" fill="#3e0000" stroke="#000000"></path><path d="M604.8 167.6L572.5 151.6L554.5 227.2Z" fill="#000000" stroke="#000000"></path><path d="M507.3 168.6L438 114.1L448 171.6Z" fill="#821301" stroke="#000000"></path><path d="M620.8 481.9L680 426.4L605.8 442.4Z" fill="#600000" stroke="#000000"></path><path d="M673 369.8L724.3 390.8L677 341.3Z" fill="#8a1900" stroke="#000000"></path><path d="M688 169.6L604.8 167.6L615.8 220.2Z" fill="#8a1900" stroke="#000000"></path><path d="M615.8 220.2L604.8 167.6L554.5 227.2Z" fill="#680301" stroke="#000000"></path><path d="M731.3 315.3L686 268.7L677 341.3Z" fill="#560000" stroke="#000000"></path><path d="M677 341.3L686 268.7L615.8 326.3Z" fill="#3e0000" stroke="#000000"></path><path d="M268.3 392.8L278.3 445.4L333.5 434.4Z" fill="#710802" stroke="#000000"></path><path d="M551.5 95.1L520.3 122.1L572.5 151.6Z" fill="#680301" stroke="#000000"></path><path d="M572.5 151.6L520.3 122.1L507.3 168.6Z" fill="#600000" stroke="#000000"></path><path d="M438 114.1L397.8 172.6L448 171.6Z" fill="#680301" stroke="#000000"></path><path d="M397.8 172.6L351.5 150.6L351.5 209.2Z" fill="#710802" stroke="#000000"></path><path d="M351.5 209.2L283.3 206.2L337.5 258.7Z" fill="#3e0000" stroke="#000000"></path><path d="M686 268.7L679 228.2L611.8 284.7Z" fill="#4d0000" stroke="#000000"></path><path d="M520.3 122.1L438 114.1L507.3 168.6Z" fill="#4d0000" stroke="#000000"></path><path d="M285.3 486.9L347.5 541.5L348.5 481.9Z" fill="#821301" stroke="#000000"></path><path d="M391.8 535.5L443 600L460 556.5Z" fill="#560000" stroke="#000000"></path><path d="M221 487.9L285.3 486.9L278.3 445.4Z" fill="#790e02" stroke="#000000"></path><path d="M278.3 445.4L285.3 486.9L333.5 434.4Z" fill="#560000" stroke="#000000"></path><path d="M351.5 150.6L283.3 206.2L351.5 209.2Z" fill="#8a1900" stroke="#000000"></path><path d="M222 331.3L227 385.8L281.3 340.3Z" fill="#000000" stroke="#000000"></path><path d="M438 114.1L394.8 115.1L397.8 172.6Z" fill="#000000" stroke="#000000"></path><path d="M351.5 150.6L277.3 157.6L283.3 206.2Z" fill="#4d0000" stroke="#000000"></path><path d="M553.5 537.5L609.8 557.5L572.5 493.9Z" fill="#680301" stroke="#000000"></path><path d="M620.8 481.9L682 502.9L680 426.4Z" fill="#3e0000" stroke="#000000"></path><path d="M548.5 600L609.8 557.5L553.5 537.5Z" fill="#790e02" stroke="#000000"></path><path d="M743.3 427.4L724.3 390.8L680 426.4Z" fill="#560000" stroke="#000000"></path><path d="M680 426.4L724.3 390.8L673 369.8Z" fill="#560000" stroke="#000000"></path><path d="M686 268.7L742.3 224.2L679 228.2Z" fill="#560000" stroke="#000000"></path><path d="M222 331.3L281.3 340.3L293.3 275.7Z" fill="#8a1900" stroke="#000000"></path><path d="M268.3 392.8L235 425.4L278.3 445.4Z" fill="#450000" stroke="#000000"></path><path d="M227 385.8L235 425.4L268.3 392.8Z" fill="#450000" stroke="#000000"></path><path d="M724.3 390.8L731.3 315.3L677 341.3Z" fill="#710802" stroke="#000000"></path><path d="M217 259.7L222 331.3L293.3 275.7Z" fill="#000000" stroke="#000000"></path><path d="M443 600L505.3 600L460 556.5Z" fill="#450000" stroke="#000000"></path><path d="M460 556.5L505.3 600L517.3 533.5Z" fill="#4d0000" stroke="#000000"></path><path d="M380.8 600L443 600L391.8 535.5Z" fill="#4d0000" stroke="#000000"></path><path d="M665 537.5L682 502.9L620.8 481.9Z" fill="#680301" stroke="#000000"></path><path d="M620.8 119.1L551.5 95.1L572.5 151.6Z" fill="#000000" stroke="#000000"></path><path d="M520.3 122.1L498.3 51.5L438 114.1Z" fill="#3e0000" stroke="#000000"></path><path d="M382.8 56.5L334.5 107.1L394.8 115.1Z" fill="#000000" stroke="#000000"></path><path d="M620.8 119.1L572.5 151.6L604.8 167.6Z" fill="#710802" stroke="#000000"></path><path d="M505.3 600L548.5 600L517.3 533.5Z" fill="#450000" stroke="#000000"></path><path d="M688 169.6L615.8 220.2L679 228.2Z" fill="#8a1900" stroke="#000000"></path><path d="M688 169.6L620.8 119.1L604.8 167.6Z" fill="#450000" stroke="#000000"></path><path d="M685 600L665 537.5L609.8 557.5Z" fill="#600000" stroke="#000000"></path><path d="M609.8 557.5L665 537.5L620.8 481.9Z" fill="#821301" stroke="#000000"></path><path d="M344.5 600L380.8 600L347.5 541.5Z" fill="#790e02" stroke="#000000"></path><path d="M347.5 541.5L380.8 600L391.8 535.5Z" fill="#450000" stroke="#000000"></path><path d="M742.3 224.2L688 169.6L679 228.2Z" fill="#8a1900" stroke="#000000"></path><path d="M233 219.2L217 259.7L293.3 275.7Z" fill="#790e02" stroke="#000000"></path><path d="M233 219.2L293.3 275.7L283.3 206.2Z" fill="#710802" stroke="#000000"></path><path d="M293.3 114.1L277.3 157.6L351.5 150.6Z" fill="#600000" stroke="#000000"></path><path d="M227 168.6L233 219.2L283.3 206.2Z" fill="#680301" stroke="#000000"></path><path d="M794.5 278.7L743.3 268.7L731.3 315.3Z" fill="#450000" stroke="#000000"></path><path d="M731.3 315.3L743.3 268.7L686 268.7Z" fill="#000000" stroke="#000000"></path><path d="M382.8 56.5L394.8 115.1L438 114.1Z" fill="#450000" stroke="#000000"></path><path d="M394.8 115.1L334.5 107.1L351.5 150.6Z" fill="#710802" stroke="#000000"></path><path d="M682 502.9L743.3 427.4L680 426.4Z" fill="#680301" stroke="#000000"></path><path d="M724.3 390.8L780.5 367.8L731.3 315.3Z" fill="#680301" stroke="#000000"></path><path d="M745.3 500.9L743.3 427.4L682 502.9Z" fill="#4d0000" stroke="#000000"></path><path d="M548.5 600L605.8 600L609.8 557.5Z" fill="#3e0000" stroke="#000000"></path><path d="M275.3 556.5L344.5 600L347.5 541.5Z" fill="#680301" stroke="#000000"></path><path d="M275.3 556.5L347.5 541.5L285.3 486.9Z" fill="#680301" stroke="#000000"></path><path d="M743.3 268.7L742.3 224.2L686 268.7Z" fill="#4d0000" stroke="#000000"></path><path d="M620.8 119.1L564.5 66.5L551.5 95.1Z" fill="#000000" stroke="#000000"></path><path d="M551.5 95.1L498.3 51.5L520.3 122.1Z" fill="#680301" stroke="#000000"></path><path d="M603.8 46.5L564.5 66.5L620.8 119.1Z" fill="#4d0000" stroke="#000000"></path><path d="M221 487.9L275.3 556.5L285.3 486.9Z" fill="#3e0000" stroke="#000000"></path><path d="M235 425.4L221 487.9L278.3 445.4Z" fill="#600000" stroke="#000000"></path><path d="M174.8 440.4L221 487.9L235 425.4Z" fill="#710802" stroke="#000000"></path><path d="M180.8 384.8L235 425.4L227 385.8Z" fill="#710802" stroke="#000000"></path><path d="M180.8 384.8L227 385.8L222 331.3Z" fill="#4d0000" stroke="#000000"></path><path d="M564.5 66.5L498.3 51.5L551.5 95.1Z" fill="#8a1900" stroke="#000000"></path><path d="M335.5 40.5L293.3 114.1L334.5 107.1Z" fill="#000000" stroke="#000000"></path><path d="M334.5 107.1L293.3 114.1L351.5 150.6Z" fill="#4d0000" stroke="#000000"></path><path d="M277.3 157.6L227 168.6L283.3 206.2Z" fill="#600000" stroke="#000000"></path><path d="M158.8 315.3L180.8 384.8L222 331.3Z" fill="#821301" stroke="#000000"></path><path d="M498.3 51.5L451 45.5L438 114.1Z" fill="#560000" stroke="#000000"></path><path d="M743.3 427.4L780.5 367.8L724.3 390.8Z" fill="#8a1900" stroke="#000000"></path><path d="M743.3 268.7L800.5 221.2L742.3 224.2Z" fill="#8a1900" stroke="#000000"></path><path d="M451 45.5L382.8 56.5L438 114.1Z" fill="#3e0000" stroke="#000000"></path><path d="M221 95.1L227 168.6L277.3 157.6Z" fill="#000000" stroke="#000000"></path><path d="M181.8 222.2L173.8 272.7L217 259.7Z" fill="#600000" stroke="#000000"></path><path d="M217 259.7L173.8 272.7L222 331.3Z" fill="#560000" stroke="#000000"></path><path d="M728.3 156.6L674 109.1L688 169.6Z" fill="#3e0000" stroke="#000000"></path><path d="M688 169.6L674 109.1L620.8 119.1Z" fill="#600000" stroke="#000000"></path><path d="M743.3 538.5L745.3 500.9L682 502.9Z" fill="#450000" stroke="#000000"></path><path d="M743.3 427.4L786.5 443.4L780.5 367.8Z" fill="#560000" stroke="#000000"></path><path d="M743.3 538.5L682 502.9L665 537.5Z" fill="#000000" stroke="#000000"></path><path d="M181.8 222.2L217 259.7L233 219.2Z" fill="#790e02" stroke="#000000"></path><path d="M742.3 224.2L728.3 156.6L688 169.6Z" fill="#710802" stroke="#000000"></path><path d="M794.5 159.6L728.3 156.6L742.3 224.2Z" fill="#600000" stroke="#000000"></path><path d="M126.5 384.8L174.8 440.4L180.8 384.8Z" fill="#560000" stroke="#000000"></path><path d="M180.8 384.8L174.8 440.4L235 425.4Z" fill="#8a1900" stroke="#000000"></path><path d="M232 600L285.3 600L275.3 556.5Z" fill="#560000" stroke="#000000"></path><path d="M831.8 320.3L795.5 324.3L832.8 367.8Z" fill="#600000" stroke="#000000"></path><path d="M780.5 367.8L795.5 324.3L731.3 315.3Z" fill="#600000" stroke="#000000"></path><path d="M275.3 556.5L285.3 600L344.5 600Z" fill="#821301" stroke="#000000"></path><path d="M218 545.5L275.3 556.5L221 487.9Z" fill="#450000" stroke="#000000"></path><path d="M173.8 272.7L158.8 315.3L222 331.3Z" fill="#3e0000" stroke="#000000"></path><path d="M227 168.6L181.8 222.2L233 219.2Z" fill="#680301" stroke="#000000"></path><path d="M104.5 272.7L124.5 330.3L158.8 315.3Z" fill="#450000" stroke="#000000"></path><path d="M795.5 324.3L794.5 278.7L731.3 315.3Z" fill="#600000" stroke="#000000"></path><path d="M745.3 500.9L786.5 443.4L743.3 427.4Z" fill="#790e02" stroke="#000000"></path><path d="M674 109.1L603.8 46.5L620.8 119.1Z" fill="#560000" stroke="#000000"></path><path d="M564.5 66.5L520.3 0L498.3 51.5Z" fill="#560000" stroke="#000000"></path><path d="M498.3 51.5L462 0L451 45.5Z" fill="#000000" stroke="#000000"></path><path d="M674 39.5L603.8 46.5L674 109.1Z" fill="#710802" stroke="#000000"></path><path d="M154.8 504.9L218 545.5L221 487.9Z" fill="#450000" stroke="#000000"></path><path d="M605.8 600L685 600L609.8 557.5Z" fill="#680301" stroke="#000000"></path><path d="M745.3 500.9L791.5 479.9L786.5 443.4Z" fill="#710802" stroke="#000000"></path><path d="M685 600L743.3 538.5L665 537.5Z" fill="#450000" stroke="#000000"></path><path d="M382.8 56.5L335.5 40.5L334.5 107.1Z" fill="#450000" stroke="#000000"></path><path d="M177.8 109.1L173.8 161.6L227 168.6Z" fill="#8a1900" stroke="#000000"></path><path d="M341.5 0L335.5 40.5L382.8 56.5Z" fill="#4d0000" stroke="#000000"></path><path d="M404.8 0L382.8 56.5L451 45.5Z" fill="#560000" stroke="#000000"></path><path d="M791.5 543.5L791.5 479.9L745.3 500.9Z" fill="#821301" stroke="#000000"></path><path d="M832.8 367.8L795.5 324.3L780.5 367.8Z" fill="#3e0000" stroke="#000000"></path><path d="M520.3 0L462 0L498.3 51.5Z" fill="#680301" stroke="#000000"></path><path d="M850.8 286.7L800.5 221.2L794.5 278.7Z" fill="#4d0000" stroke="#000000"></path><path d="M794.5 278.7L800.5 221.2L743.3 268.7Z" fill="#821301" stroke="#000000"></path><path d="M831.8 320.3L794.5 278.7L795.5 324.3Z" fill="#000000" stroke="#000000"></path><path d="M794.5 98.1L719.3 96.1L728.3 156.6Z" fill="#8a1900" stroke="#000000"></path><path d="M728.3 156.6L719.3 96.1L674 109.1Z" fill="#4d0000" stroke="#000000"></path><path d="M572.5 0L564.5 66.5L603.8 46.5Z" fill="#000000" stroke="#000000"></path><path d="M572.5 0L520.3 0L564.5 66.5Z" fill="#000000" stroke="#000000"></path><path d="M462 0L404.8 0L451 45.5Z" fill="#821301" stroke="#000000"></path><path d="M124.5 330.3L126.5 384.8L180.8 384.8Z" fill="#600000" stroke="#000000"></path><path d="M174.8 440.4L154.8 504.9L221 487.9Z" fill="#3e0000" stroke="#000000"></path><path d="M124.5 330.3L180.8 384.8L158.8 315.3Z" fill="#710802" stroke="#000000"></path><path d="M104.5 272.7L158.8 315.3L173.8 272.7Z" fill="#560000" stroke="#000000"></path><path d="M181.8 600L232 600L218 545.5Z" fill="#8a1900" stroke="#000000"></path><path d="M218 545.5L232 600L275.3 556.5Z" fill="#000000" stroke="#000000"></path><path d="M227 168.6L173.8 161.6L181.8 222.2Z" fill="#600000" stroke="#000000"></path><path d="M117.5 219.2L104.5 272.7L173.8 272.7Z" fill="#790e02" stroke="#000000"></path><path d="M221 95.1L277.3 157.6L293.3 114.1Z" fill="#680301" stroke="#000000"></path><path d="M832.8 367.8L780.5 367.8L786.5 443.4Z" fill="#600000" stroke="#000000"></path><path d="M831.8 443.4L832.8 367.8L786.5 443.4Z" fill="#8a1900" stroke="#000000"></path><path d="M615.8 0L572.5 0L603.8 46.5Z" fill="#8a1900" stroke="#000000"></path><path d="M238 51.5L221 95.1L293.3 114.1Z" fill="#680301" stroke="#000000"></path><path d="M277.3 42.5L293.3 114.1L335.5 40.5Z" fill="#600000" stroke="#000000"></path><path d="M685 600L730.3 600L743.3 538.5Z" fill="#450000" stroke="#000000"></path><path d="M743.3 538.5L791.5 543.5L745.3 500.9Z" fill="#3e0000" stroke="#000000"></path><path d="M124.5 501.9L154.8 504.9L174.8 440.4Z" fill="#450000" stroke="#000000"></path><path d="M292.3 0L277.3 42.5L335.5 40.5Z" fill="#560000" stroke="#000000"></path><path d="M719.3 96.1L674 39.5L674 109.1Z" fill="#790e02" stroke="#000000"></path><path d="M841.8 163.6L794.5 159.6L800.5 221.2Z" fill="#450000" stroke="#000000"></path><path d="M800.5 221.2L794.5 159.6L742.3 224.2Z" fill="#560000" stroke="#000000"></path><path d="M719.3 96.1L742.3 55.5L674 39.5Z" fill="#560000" stroke="#000000"></path><path d="M843.8 502.9L831.8 443.4L791.5 479.9Z" fill="#680301" stroke="#000000"></path><path d="M791.5 479.9L831.8 443.4L786.5 443.4Z" fill="#710802" stroke="#000000"></path><path d="M63.3 388.8L116.5 431.4L126.5 384.8Z" fill="#8a1900" stroke="#000000"></path><path d="M126.5 384.8L116.5 431.4L174.8 440.4Z" fill="#8a1900" stroke="#000000"></path><path d="M404.8 0L341.5 0L382.8 56.5Z" fill="#710802" stroke="#000000"></path><path d="M730.3 600L791.5 543.5L743.3 538.5Z" fill="#3e0000" stroke="#000000"></path><path d="M674 39.5L615.8 0L603.8 46.5Z" fill="#600000" stroke="#000000"></path><path d="M124.5 501.9L153.8 532.5L154.8 504.9Z" fill="#8a1900" stroke="#000000"></path><path d="M154.8 504.9L153.8 532.5L218 545.5Z" fill="#3e0000" stroke="#000000"></path><path d="M831.8 320.3L850.8 286.7L794.5 278.7Z" fill="#4d0000" stroke="#000000"></path><path d="M900 316.3L850.8 286.7L831.8 320.3Z" fill="#790e02" stroke="#000000"></path><path d="M900 316.3L831.8 320.3L832.8 367.8Z" fill="#710802" stroke="#000000"></path><path d="M225 0L238 51.5L277.3 42.5Z" fill="#8a1900" stroke="#000000"></path><path d="M277.3 42.5L238 51.5L293.3 114.1Z" fill="#4d0000" stroke="#000000"></path><path d="M221 95.1L177.8 109.1L227 168.6Z" fill="#600000" stroke="#000000"></path><path d="M117.5 219.2L173.8 272.7L181.8 222.2Z" fill="#3e0000" stroke="#000000"></path><path d="M124.5 330.3L63.3 388.8L126.5 384.8Z" fill="#560000" stroke="#000000"></path><path d="M117.5 219.2L181.8 222.2L173.8 161.6Z" fill="#680301" stroke="#000000"></path><path d="M100.5 169.6L117.5 219.2L173.8 161.6Z" fill="#680301" stroke="#000000"></path><path d="M167.8 47.5L177.8 109.1L221 95.1Z" fill="#450000" stroke="#000000"></path><path d="M116.5 431.4L124.5 501.9L174.8 440.4Z" fill="#710802" stroke="#000000"></path><path d="M115.5 558.5L181.8 600L153.8 532.5Z" fill="#600000" stroke="#000000"></path><path d="M153.8 532.5L181.8 600L218 545.5Z" fill="#560000" stroke="#000000"></path><path d="M341.5 0L292.3 0L335.5 40.5Z" fill="#821301" stroke="#000000"></path><path d="M787.5 68.5L742.3 55.5L719.3 96.1Z" fill="#3e0000" stroke="#000000"></path><path d="M674 39.5L669 0L615.8 0Z" fill="#600000" stroke="#000000"></path><path d="M717.3 0L669 0L674 39.5Z" fill="#821301" stroke="#000000"></path><path d="M791.5 543.5L843.8 502.9L791.5 479.9Z" fill="#450000" stroke="#000000"></path><path d="M831.8 443.4L900 373.8L832.8 367.8Z" fill="#3e0000" stroke="#000000"></path><path d="M849.8 549.5L843.8 502.9L791.5 543.5Z" fill="#680301" stroke="#000000"></path><path d="M850.8 286.7L857.8 221.2L800.5 221.2Z" fill="#4d0000" stroke="#000000"></path><path d="M794.5 159.6L794.5 98.1L728.3 156.6Z" fill="#8a1900" stroke="#000000"></path><path d="M900 281.7L857.8 221.2L850.8 286.7Z" fill="#710802" stroke="#000000"></path><path d="M856.8 115.1L794.5 98.1L794.5 159.6Z" fill="#560000" stroke="#000000"></path><path d="M857.8 221.2L841.8 163.6L800.5 221.2Z" fill="#560000" stroke="#000000"></path><path d="M730.3 600L799.5 600L791.5 543.5Z" fill="#600000" stroke="#000000"></path><path d="M829.8 56.5L787.5 68.5L794.5 98.1Z" fill="#790e02" stroke="#000000"></path><path d="M794.5 98.1L787.5 68.5L719.3 96.1Z" fill="#3e0000" stroke="#000000"></path><path d="M742.3 55.5L717.3 0L674 39.5Z" fill="#680301" stroke="#000000"></path><path d="M99.5 101.1L173.8 161.6L177.8 109.1Z" fill="#790e02" stroke="#000000"></path><path d="M99.5 101.1L100.5 169.6L173.8 161.6Z" fill="#8a1900" stroke="#000000"></path><path d="M48.3 229.2L52.3 278.7L104.5 272.7Z" fill="#821301" stroke="#000000"></path><path d="M167.8 47.5L221 95.1L238 51.5Z" fill="#680301" stroke="#000000"></path><path d="M49.3 339.3L63.3 388.8L124.5 330.3Z" fill="#710802" stroke="#000000"></path><path d="M116.5 431.4L57.3 483.9L124.5 501.9Z" fill="#680301" stroke="#000000"></path><path d="M49.3 339.3L124.5 330.3L104.5 272.7Z" fill="#821301" stroke="#000000"></path><path d="M69.3 557.5L115.5 558.5L124.5 501.9Z" fill="#3e0000" stroke="#000000"></path><path d="M124.5 501.9L115.5 558.5L153.8 532.5Z" fill="#4d0000" stroke="#000000"></path><path d="M799.5 0L717.3 0L742.3 55.5Z" fill="#560000" stroke="#000000"></path><path d="M900 445.4L900 373.8L831.8 443.4Z" fill="#710802" stroke="#000000"></path><path d="M900 373.8L900 316.3L832.8 367.8Z" fill="#710802" stroke="#000000"></path><path d="M900 165.6L856.8 115.1L841.8 163.6Z" fill="#4d0000" stroke="#000000"></path><path d="M799.5 600L849.8 549.5L791.5 543.5Z" fill="#560000" stroke="#000000"></path><path d="M843.8 502.9L900 445.4L831.8 443.4Z" fill="#560000" stroke="#000000"></path><path d="M900 316.3L900 281.7L850.8 286.7Z" fill="#3e0000" stroke="#000000"></path><path d="M292.3 0L225 0L277.3 42.5Z" fill="#710802" stroke="#000000"></path><path d="M52.3 278.7L49.3 339.3L104.5 272.7Z" fill="#000000" stroke="#000000"></path><path d="M225 0L167.8 47.5L238 51.5Z" fill="#450000" stroke="#000000"></path><path d="M48.3 229.2L104.5 272.7L117.5 219.2Z" fill="#8a1900" stroke="#000000"></path><path d="M900 498.9L900 445.4L843.8 502.9Z" fill="#560000" stroke="#000000"></path><path d="M44.3 437.4L116.5 431.4L63.3 388.8Z" fill="#680301" stroke="#000000"></path><path d="M44.3 437.4L57.3 483.9L116.5 431.4Z" fill="#821301" stroke="#000000"></path><path d="M0 374.8L44.3 437.4L63.3 388.8Z" fill="#600000" stroke="#000000"></path><path d="M0 374.8L63.3 388.8L49.3 339.3Z" fill="#3e0000" stroke="#000000"></path><path d="M900 165.6L841.8 163.6L857.8 221.2Z" fill="#790e02" stroke="#000000"></path><path d="M841.8 163.6L856.8 115.1L794.5 159.6Z" fill="#4d0000" stroke="#000000"></path><path d="M787.5 68.5L799.5 0L742.3 55.5Z" fill="#600000" stroke="#000000"></path><path d="M900 281.7L900 208.2L857.8 221.2Z" fill="#600000" stroke="#000000"></path><path d="M100.5 169.6L48.3 229.2L117.5 219.2Z" fill="#680301" stroke="#000000"></path><path d="M52.3 278.7L0 319.3L49.3 339.3Z" fill="#710802" stroke="#000000"></path><path d="M61.3 164.6L48.3 229.2L100.5 169.6Z" fill="#3e0000" stroke="#000000"></path><path d="M799.5 600L847.8 600L849.8 549.5Z" fill="#680301" stroke="#000000"></path><path d="M849.8 549.5L900 498.9L843.8 502.9Z" fill="#710802" stroke="#000000"></path><path d="M900 547.5L900 498.9L849.8 549.5Z" fill="#3e0000" stroke="#000000"></path><path d="M110.5 63.5L177.8 109.1L167.8 47.5Z" fill="#790e02" stroke="#000000"></path><path d="M110.5 63.5L99.5 101.1L177.8 109.1Z" fill="#8a1900" stroke="#000000"></path><path d="M99.5 101.1L61.3 164.6L100.5 169.6Z" fill="#821301" stroke="#000000"></path><path d="M900 47.5L829.8 56.5L856.8 115.1Z" fill="#600000" stroke="#000000"></path><path d="M856.8 115.1L829.8 56.5L794.5 98.1Z" fill="#4d0000" stroke="#000000"></path><path d="M69.3 557.5L98.5 600L115.5 558.5Z" fill="#680301" stroke="#000000"></path><path d="M115.5 558.5L98.5 600L181.8 600Z" fill="#3e0000" stroke="#000000"></path><path d="M900 208.2L900 165.6L857.8 221.2Z" fill="#000000" stroke="#000000"></path><path d="M57.3 483.9L69.3 557.5L124.5 501.9Z" fill="#450000" stroke="#000000"></path><path d="M0 499.9L69.3 557.5L57.3 483.9Z" fill="#8a1900" stroke="#000000"></path><path d="M160.8 0L110.5 63.5L167.8 47.5Z" fill="#821301" stroke="#000000"></path><path d="M99.5 101.1L64.3 95.1L61.3 164.6Z" fill="#000000" stroke="#000000"></path><path d="M900 600L900 547.5L849.8 549.5Z" fill="#710802" stroke="#000000"></path><path d="M225 0L160.8 0L167.8 47.5Z" fill="#4d0000" stroke="#000000"></path><path d="M840.8 0L799.5 0L829.8 56.5Z" fill="#4d0000" stroke="#000000"></path><path d="M829.8 56.5L799.5 0L787.5 68.5Z" fill="#560000" stroke="#000000"></path><path d="M0 271.7L52.3 278.7L48.3 229.2Z" fill="#3e0000" stroke="#000000"></path><path d="M0 271.7L0 319.3L52.3 278.7Z" fill="#4d0000" stroke="#000000"></path><path d="M44.3 437.4L0 448.4L57.3 483.9Z" fill="#3e0000" stroke="#000000"></path><path d="M0 319.3L0 374.8L49.3 339.3Z" fill="#3e0000" stroke="#000000"></path><path d="M69.3 63.5L64.3 95.1L99.5 101.1Z" fill="#710802" stroke="#000000"></path><path d="M0 231.2L0 271.7L48.3 229.2Z" fill="#560000" stroke="#000000"></path><path d="M69.3 63.5L99.5 101.1L110.5 63.5Z" fill="#710802" stroke="#000000"></path><path d="M0 231.2L48.3 229.2L0 168.6Z" fill="#790e02" stroke="#000000"></path><path d="M900 165.6L900 110.1L856.8 115.1Z" fill="#560000" stroke="#000000"></path><path d="M0 374.8L0 448.4L44.3 437.4Z" fill="#821301" stroke="#000000"></path><path d="M0 168.6L48.3 229.2L61.3 164.6Z" fill="#8a1900" stroke="#000000"></path><path d="M847.8 600L900 600L849.8 549.5Z" fill="#450000" stroke="#000000"></path><path d="M0 553.5L54.3 600L69.3 557.5Z" fill="#450000" stroke="#000000"></path><path d="M69.3 557.5L54.3 600L98.5 600Z" fill="#4d0000" stroke="#000000"></path><path d="M101.5 0L69.3 63.5L110.5 63.5Z" fill="#821301" stroke="#000000"></path><path d="M0 96.1L0 168.6L61.3 164.6Z" fill="#821301" stroke="#000000"></path><path d="M900 47.5L840.8 0L829.8 56.5Z" fill="#450000" stroke="#000000"></path><path d="M0 448.4L0 499.9L57.3 483.9Z" fill="#3e0000" stroke="#000000"></path><path d="M0 96.1L61.3 164.6L64.3 95.1Z" fill="#8a1900" stroke="#000000"></path><path d="M160.8 0L101.5 0L110.5 63.5Z" fill="#450000" stroke="#000000"></path><path d="M0 54.5L0 96.1L64.3 95.1Z" fill="#000000" stroke="#000000"></path><path d="M900 110.1L900 47.5L856.8 115.1Z" fill="#4d0000" stroke="#000000"></path><path d="M0 499.9L0 553.5L69.3 557.5Z" fill="#450000" stroke="#000000"></path><path d="M0 54.5L64.3 95.1L69.3 63.5Z" fill="#3e0000" stroke="#000000"></path><path d="M0 553.5L0 600L54.3 600Z" fill="#821301" stroke="#000000"></path><path d="M101.5 0L57.3 0L69.3 63.5Z" fill="#790e02" stroke="#000000"></path><path d="M900 47.5L900 0L840.8 0Z" fill="#710802" stroke="#000000"></path><path d="M57.3 0L0 54.5L69.3 63.5Z" fill="#000000" stroke="#000000"></path><path d="M57.3 0L0 0L0 54.5Z" fill="#600000" stroke="#000000"></path></g></svg>