<svg id="visual" viewBox="0 0 960 540" width="960" height="540" xmlns="http://www.w3.org/2000/svg" xmlns:xlink="http://www.w3.org/1999/xlink" version="1.1"><rect x="0" y="0" width="960" height="540" fill="#d778d1"></rect><defs><linearGradient id="grad1_0" x1="43.8%" y1="100%" x2="100%" y2="0%"><stop offset="14.444444444444446%" stop-color="#a82e7f" stop-opacity="1"></stop><stop offset="85.55555555555554%" stop-color="#a82e7f" stop-opacity="1"></stop></linearGradient></defs><defs><linearGradient id="grad1_1" x1="43.8%" y1="100%" x2="100%" y2="0%"><stop offset="14.444444444444446%" stop-color="#a82e7f" stop-opacity="1"></stop><stop offset="85.55555555555554%" stop-color="#af3a8a" stop-opacity="1"></stop></linearGradient></defs><defs><linearGradient id="grad1_2" x1="43.8%" y1="100%" x2="100%" y2="0%"><stop offset="14.444444444444446%" stop-color="#b64496" stop-opacity="1"></stop><stop offset="85.55555555555554%" stop-color="#af3a8a" stop-opacity="1"></stop></linearGradient></defs><defs><linearGradient id="grad1_3" x1="43.8%" y1="100%" x2="100%" y2="0%"><stop offset="14.444444444444446%" stop-color="#b64496" stop-opacity="1"></stop><stop offset="85.55555555555554%" stop-color="#bd4fa2" stop-opacity="1"></stop></linearGradient></defs><defs><linearGradient id="grad1_4" x1="43.8%" y1="100%" x2="100%" y2="0%"><stop offset="14.444444444444446%" stop-color="#c459ad" stop-opacity="1"></stop><stop offset="85.55555555555554%" stop-color="#bd4fa2" stop-opacity="1"></stop></linearGradient></defs><defs><linearGradient id="grad1_5" x1="43.8%" y1="100%" x2="100%" y2="0%"><stop offset="14.444444444444446%" stop-color="#c459ad" stop-opacity="1"></stop><stop offset="85.55555555555554%" stop-color="#ca64b9" stop-opacity="1"></stop></linearGradient></defs><defs><linearGradient id="grad1_6" x1="43.8%" y1="100%" x2="100%" y2="0%"><stop offset="14.444444444444446%" stop-color="#d16ec5" stop-opacity="1"></stop><stop offset="85.55555555555554%" stop-color="#ca64b9" stop-opacity="1"></stop></linearGradient></defs><defs><linearGradient id="grad1_7" x1="43.8%" y1="100%" x2="100%" y2="0%"><stop offset="14.444444444444446%" stop-color="#d16ec5" stop-opacity="1"></stop><stop offset="85.55555555555554%" stop-color="#d778d1" stop-opacity="1"></stop></linearGradient></defs><defs><linearGradient id="grad2_0" x1="0%" y1="100%" x2="56.3%" y2="0%"><stop offset="14.444444444444446%" stop-color="#a82e7f" stop-opacity="1"></stop><stop offset="85.55555555555554%" stop-color="#a82e7f" stop-opacity="1"></stop></linearGradient></defs><defs><linearGradient id="grad2_1" x1="0%" y1="100%" x2="56.3%" y2="0%"><stop offset="14.444444444444446%" stop-color="#af3a8a" stop-opacity="1"></stop><stop offset="85.55555555555554%" stop-color="#a82e7f" stop-opacity="1"></stop></linearGradient></defs><defs><linearGradient id="grad2_2" x1="0%" y1="100%" x2="56.3%" y2="0%"><stop offset="14.444444444444446%" stop-color="#af3a8a" stop-opacity="1"></stop><stop offset="85.55555555555554%" stop-color="#b64496" stop-opacity="1"></stop></linearGradient></defs><defs><linearGradient id="grad2_3" x1="0%" y1="100%" x2="56.3%" y2="0%"><stop offset="14.444444444444446%" stop-color="#bd4fa2" stop-opacity="1"></stop><stop offset="85.55555555555554%" stop-color="#b64496" stop-opacity="1"></stop></linearGradient></defs><defs><linearGradient id="grad2_4" x1="0%" y1="100%" x2="56.3%" y2="0%"><stop offset="14.444444444444446%" stop-color="#bd4fa2" stop-opacity="1"></stop><stop offset="85.55555555555554%" stop-color="#c459ad" stop-opacity="1"></stop></linearGradient></defs><defs><linearGradient id="grad2_5" x1="0%" y1="100%" x2="56.3%" y2="0%"><stop offset="14.444444444444446%" stop-color="#ca64b9" stop-opacity="1"></stop><stop offset="85.55555555555554%" stop-color="#c459ad" stop-opacity="1"></stop></linearGradient></defs><defs><linearGradient id="grad2_6" x1="0%" y1="100%" x2="56.3%" y2="0%"><stop offset="14.444444444444446%" stop-color="#ca64b9" stop-opacity="1"></stop><stop offset="85.55555555555554%" stop-color="#d16ec5" stop-opacity="1"></stop></linearGradient></defs><defs><linearGradient id="grad2_7" x1="0%" y1="100%" x2="56.3%" y2="0%"><stop offset="14.444444444444446%" stop-color="#d778d1" stop-opacity="1"></stop><stop offset="85.55555555555554%" stop-color="#d16ec5" stop-opacity="1"></stop></linearGradient></defs><g transform="translate(960, 540)"><path d="M-486 0C-463.6 -78.9 -441.3 -157.9 -403.6 -233C-365.9 -308.1 -312.8 -379.4 -243 -420.9C-173.2 -462.4 -86.6 -474.2 0 -486L0 0Z" fill="#d473cb"></path><path d="M-425.2 0C-405.7 -69.1 -386.1 -138.2 -353.1 -203.9C-320.1 -269.6 -273.7 -331.9 -212.6 -368.3C-151.5 -404.6 -75.8 -414.9 0 -425.2L0 0Z" fill="#ce69bf"></path><path d="M-364.5 0C-347.7 -59.2 -331 -118.4 -302.7 -174.8C-274.4 -231.1 -234.6 -284.5 -182.3 -315.7C-129.9 -346.8 -64.9 -355.7 0 -364.5L0 0Z" fill="#c75eb3"></path><path d="M-303.7 0C-289.8 -49.3 -275.8 -98.7 -252.2 -145.6C-228.7 -192.6 -195.5 -237.1 -151.9 -263.1C-108.2 -289 -54.1 -296.4 0 -303.7L0 0Z" fill="#c054a7"></path><path d="M-243 0C-231.8 -39.5 -220.6 -78.9 -201.8 -116.5C-182.9 -154.1 -156.4 -189.7 -121.5 -210.4C-86.6 -231.2 -43.3 -237.1 0 -243L0 0Z" fill="#ba4a9c"></path><path d="M-182.2 0C-173.9 -29.6 -165.5 -59.2 -151.3 -87.4C-137.2 -115.5 -117.3 -142.3 -91.1 -157.8C-64.9 -173.4 -32.5 -177.8 0 -182.2L0 0Z" fill="#b33f90"></path><path d="M-121.5 0C-115.9 -19.7 -110.3 -39.5 -100.9 -58.3C-91.5 -77 -78.2 -94.8 -60.8 -105.2C-43.3 -115.6 -21.6 -118.6 0 -121.5L0 0Z" fill="#ac3485"></path><path d="M-60.7 0C-58 -9.9 -55.2 -19.7 -50.4 -29.1C-45.7 -38.5 -39.1 -47.4 -30.4 -52.6C-21.6 -57.8 -10.8 -59.3 0 -60.7L0 0Z" fill="#a82e7f"></path></g><g transform="translate(0, 0)"><path d="M486 0C462.3 78.1 438.5 156.3 401 231.5C363.4 306.7 312.1 379 243 420.9C173.9 462.8 86.9 474.4 0 486L0 0Z" fill="#d473cb"></path><path d="M425.3 0C404.5 68.4 383.7 136.8 350.8 202.6C318 268.4 273.1 331.6 212.6 368.3C152.1 405 76.1 415.1 0 425.3L0 0Z" fill="#ce69bf"></path><path d="M364.5 0C346.7 58.6 328.9 117.2 300.7 173.6C272.6 230 234.1 284.2 182.3 315.7C130.4 347.1 65.2 355.8 0 364.5L0 0Z" fill="#c75eb3"></path><path d="M303.8 0C288.9 48.8 274.1 97.7 250.6 144.7C227.1 191.7 195.1 236.9 151.9 263.1C108.7 289.3 54.3 296.5 0 303.8L0 0Z" fill="#c054a7"></path><path d="M243 0C231.1 39.1 219.3 78.1 200.5 115.7C181.7 153.4 156.1 189.5 121.5 210.4C86.9 231.4 43.5 237.2 0 243L0 0Z" fill="#ba4a9c"></path><path d="M182.3 0C173.3 29.3 164.4 58.6 150.4 86.8C136.3 115 117 142.1 91.1 157.8C65.2 173.6 32.6 177.9 0 182.3L0 0Z" fill="#b33f90"></path><path d="M121.5 0C115.6 19.5 109.6 39.1 100.2 57.9C90.9 76.7 78 94.7 60.8 105.2C43.5 115.7 21.7 118.6 0 121.5L0 0Z" fill="#ac3485"></path><path d="M60.8 0C57.8 9.8 54.8 19.5 50.1 28.9C45.4 38.3 39 47.4 30.4 52.6C21.7 57.9 10.9 59.3 0 60.8L0 0Z" fill="#a82e7f"></path></g></svg>