<svg id="visual" viewBox="0 0 900 450" width="900" height="450" xmlns="http://www.w3.org/2000/svg" xmlns:xlink="http://www.w3.org/1999/xlink" version="1.1"><path d="M0 325L39 325L39 287L78 287L78 346L117 346L117 340L157 340L157 307L196 307L196 307L235 307L235 299L274 299L274 290L313 290L313 270L352 270L352 371L391 371L391 293L430 293L430 364L470 364L470 320L509 320L509 277L548 277L548 294L587 294L587 345L626 345L626 283L665 283L665 321L704 321L704 280L743 280L743 297L783 297L783 359L822 359L822 333L861 333L861 272L900 272L900 314L900 451L900 451L861 451L861 451L822 451L822 451L783 451L783 451L743 451L743 451L704 451L704 451L665 451L665 451L626 451L626 451L587 451L587 451L548 451L548 451L509 451L509 451L470 451L470 451L430 451L430 451L391 451L391 451L352 451L352 451L313 451L313 451L274 451L274 451L235 451L235 451L196 451L196 451L157 451L157 451L117 451L117 451L78 451L78 451L39 451L39 451L0 451Z" fill="#f1d1d0"></path><path d="M0 310L39 310L39 359L78 359L78 320L117 320L117 355L157 355L157 357L196 357L196 288L235 288L235 326L274 326L274 312L313 312L313 347L352 347L352 328L391 328L391 334L430 334L430 308L470 308L470 368L509 368L509 284L548 284L548 342L587 342L587 321L626 321L626 337L665 337L665 377L704 377L704 376L743 376L743 302L783 302L783 323L822 323L822 372L861 372L861 298L900 298L900 369L900 451L900 451L861 451L861 451L822 451L822 451L783 451L783 451L743 451L743 451L704 451L704 451L665 451L665 451L626 451L626 451L587 451L587 451L548 451L548 451L509 451L509 451L470 451L470 451L430 451L430 451L391 451L391 451L352 451L352 451L313 451L313 451L274 451L274 451L235 451L235 451L196 451L196 451L157 451L157 451L117 451L117 451L78 451L78 451L39 451L39 451L0 451Z" fill="#ecbdbf"></path><path d="M0 305L39 305L39 301L78 301L78 372L117 372L117 371L157 371L157 324L196 324L196 302L235 302L235 336L274 336L274 350L313 350L313 315L352 315L352 341L391 341L391 357L430 357L430 365L470 365L470 324L509 324L509 312L548 312L548 357L587 357L587 318L626 318L626 357L665 357L665 327L704 327L704 367L743 367L743 327L783 327L783 370L822 370L822 304L861 304L861 298L900 298L900 334L900 451L900 451L861 451L861 451L822 451L822 451L783 451L783 451L743 451L743 451L704 451L704 451L665 451L665 451L626 451L626 451L587 451L587 451L548 451L548 451L509 451L509 451L470 451L470 451L430 451L430 451L391 451L391 451L352 451L352 451L313 451L313 451L274 451L274 451L235 451L235 451L196 451L196 451L157 451L157 451L117 451L117 451L78 451L78 451L39 451L39 451L0 451Z" fill="#e6a9b2"></path><path d="M0 371L39 371L39 358L78 358L78 378L117 378L117 327L157 327L157 351L196 351L196 351L235 351L235 389L274 389L274 366L313 366L313 385L352 385L352 359L391 359L391 382L430 382L430 381L470 381L470 366L509 366L509 333L548 333L548 368L587 368L587 337L626 337L626 390L665 390L665 357L704 357L704 363L743 363L743 369L783 369L783 384L822 384L822 357L861 357L861 336L900 336L900 330L900 451L900 451L861 451L861 451L822 451L822 451L783 451L783 451L743 451L743 451L704 451L704 451L665 451L665 451L626 451L626 451L587 451L587 451L548 451L548 451L509 451L509 451L470 451L470 451L430 451L430 451L391 451L391 451L352 451L352 451L313 451L313 451L274 451L274 451L235 451L235 451L196 451L196 451L157 451L157 451L117 451L117 451L78 451L78 451L39 451L39 451L0 451Z" fill="#df95a6"></path><path d="M0 388L39 388L39 397L78 397L78 324L117 324L117 374L157 374L157 356L196 356L196 379L235 379L235 371L274 371L274 359L313 359L313 378L352 378L352 363L391 363L391 382L430 382L430 352L470 352L470 378L509 378L509 334L548 334L548 377L587 377L587 342L626 342L626 368L665 368L665 330L704 330L704 381L743 381L743 372L783 372L783 391L822 391L822 384L861 384L861 374L900 374L900 358L900 451L900 451L861 451L861 451L822 451L822 451L783 451L783 451L743 451L743 451L704 451L704 451L665 451L665 451L626 451L626 451L587 451L587 451L548 451L548 451L509 451L509 451L470 451L470 451L430 451L430 451L391 451L391 451L352 451L352 451L313 451L313 451L274 451L274 451L235 451L235 451L196 451L196 451L157 451L157 451L117 451L117 451L78 451L78 451L39 451L39 451L0 451Z" fill="#d6819e"></path><path d="M0 355L39 355L39 357L78 357L78 396L117 396L117 397L157 397L157 352L196 352L196 369L235 369L235 385L274 385L274 346L313 346L313 340L352 340L352 352L391 352L391 380L430 380L430 348L470 348L470 397L509 397L509 397L548 397L548 345L587 345L587 348L626 348L626 365L665 365L665 403L704 403L704 372L743 372L743 393L783 393L783 355L822 355L822 390L861 390L861 372L900 372L900 399L900 451L900 451L861 451L861 451L822 451L822 451L783 451L783 451L743 451L743 451L704 451L704 451L665 451L665 451L626 451L626 451L587 451L587 451L548 451L548 451L509 451L509 451L470 451L470 451L430 451L430 451L391 451L391 451L352 451L352 451L313 451L313 451L274 451L274 451L235 451L235 451L196 451L196 451L157 451L157 451L117 451L117 451L78 451L78 451L39 451L39 451L0 451Z" fill="#cb6d97"></path><path d="M0 356L39 356L39 370L78 370L78 376L117 376L117 398L157 398L157 413L196 413L196 357L235 357L235 379L274 379L274 393L313 393L313 366L352 366L352 378L391 378L391 359L430 359L430 356L470 356L470 361L509 361L509 388L548 388L548 364L587 364L587 396L626 396L626 357L665 357L665 386L704 386L704 396L743 396L743 378L783 378L783 359L822 359L822 409L861 409L861 387L900 387L900 355L900 451L900 451L861 451L861 451L822 451L822 451L783 451L783 451L743 451L743 451L704 451L704 451L665 451L665 451L626 451L626 451L587 451L587 451L548 451L548 451L509 451L509 451L470 451L470 451L430 451L430 451L391 451L391 451L352 451L352 451L313 451L313 451L274 451L274 451L235 451L235 451L196 451L196 451L157 451L157 451L117 451L117 451L78 451L78 451L39 451L39 451L0 451Z" fill="#be5993"></path><path d="M0 390L39 390L39 406L78 406L78 391L117 391L117 388L157 388L157 405L196 405L196 377L235 377L235 419L274 419L274 370L313 370L313 397L352 397L352 380L391 380L391 419L430 419L430 406L470 406L470 368L509 368L509 377L548 377L548 371L587 371L587 397L626 397L626 419L665 419L665 372L704 372L704 403L743 403L743 375L783 375L783 413L822 413L822 370L861 370L861 382L900 382L900 409L900 451L900 451L861 451L861 451L822 451L822 451L783 451L783 451L743 451L743 451L704 451L704 451L665 451L665 451L626 451L626 451L587 451L587 451L548 451L548 451L509 451L509 451L470 451L470 451L430 451L430 451L391 451L391 451L352 451L352 451L313 451L313 451L274 451L274 451L235 451L235 451L196 451L196 451L157 451L157 451L117 451L117 451L78 451L78 451L39 451L39 451L0 451Z" fill="#b04690"></path><path d="M0 392L39 392L39 398L78 398L78 392L117 392L117 428L157 428L157 426L196 426L196 400L235 400L235 393L274 393L274 398L313 398L313 388L352 388L352 427L391 427L391 394L430 394L430 422L470 422L470 396L509 396L509 390L548 390L548 417L587 417L587 396L626 396L626 397L665 397L665 400L704 400L704 424L743 424L743 409L783 409L783 420L822 420L822 418L861 418L861 409L900 409L900 403L900 451L900 451L861 451L861 451L822 451L822 451L783 451L783 451L743 451L743 451L704 451L704 451L665 451L665 451L626 451L626 451L587 451L587 451L548 451L548 451L509 451L509 451L470 451L470 451L430 451L430 451L391 451L391 451L352 451L352 451L313 451L313 451L274 451L274 451L235 451L235 451L196 451L196 451L157 451L157 451L117 451L117 451L78 451L78 451L39 451L39 451L0 451Z" fill="#9f338f"></path><path d="M0 402L39 402L39 408L78 408L78 398L117 398L117 404L157 404L157 430L196 430L196 408L235 408L235 424L274 424L274 406L313 406L313 425L352 425L352 402L391 402L391 434L430 434L430 410L470 410L470 433L509 433L509 434L548 434L548 404L587 404L587 425L626 425L626 421L665 421L665 419L704 419L704 403L743 403L743 432L783 432L783 428L822 428L822 398L861 398L861 411L900 411L900 430L900 451L900 451L861 451L861 451L822 451L822 451L783 451L783 451L743 451L743 451L704 451L704 451L665 451L665 451L626 451L626 451L587 451L587 451L548 451L548 451L509 451L509 451L470 451L470 451L430 451L430 451L391 451L391 451L352 451L352 451L313 451L313 451L274 451L274 451L235 451L235 451L196 451L196 451L157 451L157 451L117 451L117 451L78 451L78 451L39 451L39 451L0 451Z" fill="#8b218e"></path><path d="M0 435L39 435L39 430L78 430L78 422L117 422L117 421L157 421L157 413L196 413L196 431L235 431L235 431L274 431L274 431L313 431L313 412L352 412L352 435L391 435L391 420L430 420L430 426L470 426L470 420L509 420L509 422L548 422L548 411L587 411L587 439L626 439L626 421L665 421L665 415L704 415L704 421L743 421L743 422L783 422L783 421L822 421L822 413L861 413L861 421L900 421L900 430L900 451L900 451L861 451L861 451L822 451L822 451L783 451L783 451L743 451L743 451L704 451L704 451L665 451L665 451L626 451L626 451L587 451L587 451L548 451L548 451L509 451L509 451L470 451L470 451L430 451L430 451L391 451L391 451L352 451L352 451L313 451L313 451L274 451L274 451L235 451L235 451L196 451L196 451L157 451L157 451L117 451L117 451L78 451L78 451L39 451L39 451L0 451Z" fill="#730f8f"></path><path d="M0 446L39 446L39 433L78 433L78 421L117 421L117 428L157 428L157 424L196 424L196 449L235 449L235 446L274 446L274 427L313 427L313 428L352 428L352 447L391 447L391 435L430 435L430 433L470 433L470 424L509 424L509 432L548 432L548 431L587 431L587 442L626 442L626 448L665 448L665 445L704 445L704 437L743 437L743 425L783 425L783 424L822 424L822 439L861 439L861 430L900 430L900 426L900 451L900 451L861 451L861 451L822 451L822 451L783 451L783 451L743 451L743 451L704 451L704 451L665 451L665 451L626 451L626 451L587 451L587 451L548 451L548 451L509 451L509 451L470 451L470 451L430 451L430 451L391 451L391 451L352 451L352 451L313 451L313 451L274 451L274 451L235 451L235 451L196 451L196 451L157 451L157 451L117 451L117 451L78 451L78 451L39 451L39 451L0 451Z" fill="#560090"></path></svg>