<svg id="visual" viewBox="0 0 960 540" width="960" height="540" xmlns="http://www.w3.org/2000/svg" xmlns:xlink="http://www.w3.org/1999/xlink" version="1.1"><path d="M0 44L80 50.3C160 56.7 320 69.3 480 69.3C640 69.3 800 56.7 880 50.3L960 44L960 0L880 0C800 0 640 0 480 0C320 0 160 0 80 0L0 0Z" fill="#810606"></path><path d="M0 60L80 69C160 78 320 96 480 100.5C640 105 800 96 880 91.5L960 87L960 42L880 48.3C800 54.7 640 67.3 480 67.3C320 67.3 160 54.7 80 48.3L0 42Z" fill="#8d0d16"></path><path d="M0 82L80 91.8C160 101.7 320 121.3 480 125.8C640 130.3 800 119.7 880 114.3L960 109L960 85L880 89.5C800 94 640 103 480 98.5C320 94 160 76 80 67L0 58Z" fill="#981523"></path><path d="M0 287L80 283.5C160 280 320 273 480 247.8C640 222.7 800 179.3 880 157.7L960 136L960 107L880 112.3C800 117.7 640 128.3 480 123.8C320 119.3 160 99.7 80 89.8L0 80Z" fill="#a21d31"></path><path d="M0 325L80 321.3C160 317.7 320 310.3 480 297.7C640 285 800 267 880 258L960 249L960 134L880 155.7C800 177.3 640 220.7 480 245.8C320 271 160 278 80 281.5L0 285Z" fill="#ac263f"></path><path d="M0 417L80 423.3C160 429.7 320 442.3 480 436C640 429.7 800 404.3 880 391.7L960 379L960 247L880 256C800 265 640 283 480 295.7C320 308.3 160 315.7 80 319.3L0 323Z" fill="#b02945"></path><path d="M0 455L80 455.8C160 456.7 320 458.3 480 448.3C640 438.3 800 416.7 880 405.8L960 395L960 377L880 389.7C800 402.3 640 427.7 480 434C320 440.3 160 427.7 80 421.3L0 415Z" fill="#b02945"></path><path d="M0 455L80 461.2C160 467.3 320 479.7 480 474.2C640 468.7 800 445.3 880 433.7L960 422L960 393L880 403.8C800 414.7 640 436.3 480 446.3C320 456.3 160 454.7 80 453.8L0 453Z" fill="#ac263f"></path><path d="M0 476L80 479.7C160 483.3 320 490.7 480 481.7C640 472.7 800 447.3 880 434.7L960 422L960 420L880 431.7C800 443.3 640 466.7 480 472.2C320 477.7 160 465.3 80 459.2L0 453Z" fill="#a21d31"></path><path d="M0 482L80 487.3C160 492.7 320 503.3 480 494.3C640 485.3 800 456.7 880 442.3L960 428L960 420L880 432.7C800 445.3 640 470.7 480 479.7C320 488.7 160 481.3 80 477.7L0 474Z" fill="#981523"></path><path d="M0 482L80 491C160 500 320 518 480 516.2C640 514.3 800 492.7 880 481.8L960 471L960 426L880 440.3C800 454.7 640 483.3 480 492.3C320 501.3 160 490.7 80 485.3L0 480Z" fill="#8d0d16"></path><path d="M0 541L80 541C160 541 320 541 480 541C640 541 800 541 880 541L960 541L960 469L880 479.8C800 490.7 640 512.3 480 514.2C320 516 160 498 80 489L0 480Z" fill="#810606"></path></svg>